<svg width="589" height="315" viewBox="0 0 589 315" fill="none" xmlns="http://www.w3.org/2000/svg">
<g opacity="0.2">
<path d="M26.7432 6V287" stroke="#0D5552"/>
<path d="M167 6V287" stroke="#0D5552"/>
<path d="M307 6V287" stroke="#0D5552"/>
<path d="M447 6V287" stroke="#0D5552"/>
<path d="M588 6V288" stroke="#0D5552"/>
<path d="M27 288H588" stroke="#0D5552"/>
<path d="M27 218H588" stroke="#0D5552"/>
<path d="M27 148H588" stroke="#0D5552"/>
<path d="M27 77H588" stroke="#0D5552"/>
<path d="M27 6H588" stroke="#0D5552"/>
<path d="M27.3184 287.5H578.573" stroke="#0D5552"/>
<path d="M27 6V287" stroke="#0D5552"/>
</g>
<path d="M25.9019 310V309.076L29.2619 306.16C29.6059 305.872 29.8699 305.62 30.0539 305.404C30.2379 305.18 30.3619 304.968 30.4259 304.768C30.4979 304.568 30.5339 304.352 30.5339 304.12C30.5339 303.648 30.3939 303.26 30.1139 302.956C29.8339 302.644 29.4499 302.488 28.9619 302.488C28.3779 302.488 27.9299 302.648 27.6179 302.968C27.3059 303.28 27.1499 303.724 27.1499 304.3H26.0219C26.0219 303.748 26.1419 303.26 26.3819 302.836C26.6299 302.412 26.9739 302.08 27.4139 301.84C27.8619 301.6 28.3779 301.48 28.9619 301.48C29.5299 301.48 30.0139 301.596 30.4139 301.828C30.8219 302.052 31.1299 302.364 31.3379 302.764C31.5539 303.156 31.6619 303.608 31.6619 304.12C31.6619 304.504 31.5859 304.856 31.4339 305.176C31.2819 305.488 31.0699 305.784 30.7979 306.064C30.5339 306.344 30.2259 306.636 29.8739 306.94L27.3659 309.016H31.7819V310H25.9019ZM36.1028 310.12C35.6948 310.12 35.3108 310.052 34.9508 309.916C34.5908 309.772 34.2708 309.536 33.9908 309.208C33.7108 308.88 33.4908 308.44 33.3308 307.888C33.1788 307.328 33.1028 306.632 33.1028 305.8V305.56C33.1028 304.784 33.1788 304.136 33.3308 303.616C33.4908 303.088 33.7108 302.668 33.9908 302.356C34.2708 302.044 34.5908 301.82 34.9508 301.684C35.3108 301.548 35.6948 301.48 36.1028 301.48C36.5108 301.48 36.8948 301.548 37.2548 301.684C37.6148 301.82 37.9348 302.044 38.2148 302.356C38.4948 302.668 38.7108 303.088 38.8628 303.616C39.0228 304.136 39.1028 304.784 39.1028 305.56V305.8C39.1028 306.632 39.0228 307.328 38.8628 307.888C38.7108 308.44 38.4948 308.88 38.2148 309.208C37.9348 309.536 37.6148 309.772 37.2548 309.916C36.8948 310.052 36.5108 310.12 36.1028 310.12ZM36.1028 309.136C36.3588 309.136 36.5988 309.092 36.8228 309.004C37.0468 308.908 37.2428 308.74 37.4108 308.5C37.5868 308.252 37.7228 307.912 37.8188 307.48C37.9228 307.04 37.9748 306.48 37.9748 305.8V305.56C37.9748 304.728 37.8868 304.088 37.7108 303.64C37.5428 303.192 37.3148 302.884 37.0268 302.716C36.7468 302.548 36.4388 302.464 36.1028 302.464C35.7668 302.464 35.4548 302.548 35.1668 302.716C34.8868 302.884 34.6588 303.192 34.4828 303.64C34.3148 304.088 34.2308 304.728 34.2308 305.56V305.8C34.2308 306.48 34.2788 307.04 34.3748 307.48C34.4788 307.912 34.6148 308.252 34.7828 308.5C34.9588 308.74 35.1588 308.908 35.3828 309.004C35.6148 309.092 35.8548 309.136 36.1028 309.136ZM40.4842 310V309.016H42.4882V302.836L40.4842 304.264V303.04L42.5122 301.6H43.6402V309.016H45.2842V310H40.4842ZM49.0684 310.12C48.6204 310.12 48.2164 310.052 47.8564 309.916C47.5044 309.78 47.2124 309.576 46.9804 309.304C46.7484 309.024 46.5844 308.676 46.4884 308.26H47.6164C47.7284 308.54 47.9044 308.752 48.1444 308.896C48.3924 309.04 48.7004 309.112 49.0684 309.112C49.4524 309.112 49.7964 309.016 50.1004 308.824C50.4124 308.632 50.6604 308.308 50.8444 307.852C51.0364 307.396 51.1404 306.772 51.1564 305.98C50.9324 306.372 50.6204 306.652 50.2204 306.82C49.8284 306.98 49.4444 307.06 49.0684 307.06C48.5084 307.06 48.0204 306.956 47.6044 306.748C47.1964 306.532 46.8764 306.224 46.6444 305.824C46.4204 305.416 46.3084 304.924 46.3084 304.348V304.228C46.3084 303.692 46.4364 303.22 46.6924 302.812C46.9484 302.396 47.2884 302.072 47.7124 301.84C48.1444 301.6 48.6164 301.48 49.1284 301.48C49.7604 301.48 50.3044 301.616 50.7604 301.888C51.2164 302.16 51.5684 302.58 51.8164 303.148C52.0644 303.708 52.1884 304.432 52.1884 305.32V305.56C52.1884 306.664 52.0444 307.552 51.7564 308.224C51.4684 308.888 51.0884 309.372 50.6164 309.676C50.1444 309.972 49.6284 310.12 49.0684 310.12ZM49.2244 306.052C49.8084 306.052 50.2524 305.904 50.5564 305.608C50.8604 305.312 51.0124 304.888 51.0124 304.336V304.216C51.0124 303.672 50.8564 303.248 50.5444 302.944C50.2404 302.64 49.8004 302.488 49.2244 302.488C48.6404 302.488 48.1964 302.636 47.8924 302.932C47.5884 303.22 47.4364 303.648 47.4364 304.216V304.336C47.4364 304.888 47.5884 305.312 47.8924 305.608C48.1964 305.904 48.6404 306.052 49.2244 306.052Z" fill="#0D5552"/>
<path d="M152.05 310V309.076L155.41 306.16C155.754 305.872 156.018 305.62 156.202 305.404C156.386 305.18 156.51 304.968 156.574 304.768C156.646 304.568 156.682 304.352 156.682 304.12C156.682 303.648 156.542 303.26 156.262 302.956C155.982 302.644 155.598 302.488 155.11 302.488C154.526 302.488 154.078 302.648 153.766 302.968C153.454 303.28 153.298 303.724 153.298 304.3H152.17C152.17 303.748 152.29 303.26 152.53 302.836C152.778 302.412 153.122 302.08 153.562 301.84C154.01 301.6 154.526 301.48 155.11 301.48C155.678 301.48 156.162 301.596 156.562 301.828C156.97 302.052 157.278 302.364 157.486 302.764C157.702 303.156 157.81 303.608 157.81 304.12C157.81 304.504 157.734 304.856 157.582 305.176C157.43 305.488 157.218 305.784 156.946 306.064C156.682 306.344 156.374 306.636 156.022 306.94L153.514 309.016H157.93V310H152.05ZM162.251 310.12C161.843 310.12 161.459 310.052 161.099 309.916C160.739 309.772 160.419 309.536 160.139 309.208C159.859 308.88 159.639 308.44 159.479 307.888C159.327 307.328 159.251 306.632 159.251 305.8V305.56C159.251 304.784 159.327 304.136 159.479 303.616C159.639 303.088 159.859 302.668 160.139 302.356C160.419 302.044 160.739 301.82 161.099 301.684C161.459 301.548 161.843 301.48 162.251 301.48C162.659 301.48 163.043 301.548 163.403 301.684C163.763 301.82 164.083 302.044 164.363 302.356C164.643 302.668 164.859 303.088 165.011 303.616C165.171 304.136 165.251 304.784 165.251 305.56V305.8C165.251 306.632 165.171 307.328 165.011 307.888C164.859 308.44 164.643 308.88 164.363 309.208C164.083 309.536 163.763 309.772 163.403 309.916C163.043 310.052 162.659 310.12 162.251 310.12ZM162.251 309.136C162.507 309.136 162.747 309.092 162.971 309.004C163.195 308.908 163.391 308.74 163.559 308.5C163.735 308.252 163.871 307.912 163.967 307.48C164.071 307.04 164.123 306.48 164.123 305.8V305.56C164.123 304.728 164.035 304.088 163.859 303.64C163.691 303.192 163.463 302.884 163.175 302.716C162.895 302.548 162.587 302.464 162.251 302.464C161.915 302.464 161.603 302.548 161.315 302.716C161.035 302.884 160.807 303.192 160.631 303.64C160.463 304.088 160.379 304.728 160.379 305.56V305.8C160.379 306.48 160.427 307.04 160.523 307.48C160.627 307.912 160.763 308.252 160.931 308.5C161.107 308.74 161.307 308.908 161.531 309.004C161.763 309.092 162.003 309.136 162.251 309.136ZM166.453 310V309.076L169.813 306.16C170.157 305.872 170.421 305.62 170.605 305.404C170.789 305.18 170.913 304.968 170.977 304.768C171.049 304.568 171.085 304.352 171.085 304.12C171.085 303.648 170.945 303.26 170.665 302.956C170.385 302.644 170.001 302.488 169.513 302.488C168.929 302.488 168.481 302.648 168.169 302.968C167.857 303.28 167.701 303.724 167.701 304.3H166.573C166.573 303.748 166.693 303.26 166.933 302.836C167.181 302.412 167.525 302.08 167.965 301.84C168.413 301.6 168.929 301.48 169.513 301.48C170.081 301.48 170.565 301.596 170.965 301.828C171.373 302.052 171.681 302.364 171.889 302.764C172.105 303.156 172.213 303.608 172.213 304.12C172.213 304.504 172.137 304.856 171.985 305.176C171.833 305.488 171.621 305.784 171.349 306.064C171.085 306.344 170.777 306.636 170.425 306.94L167.917 309.016H172.333V310H166.453ZM176.654 310.12C176.246 310.12 175.862 310.052 175.502 309.916C175.142 309.772 174.822 309.536 174.542 309.208C174.262 308.88 174.042 308.44 173.882 307.888C173.73 307.328 173.654 306.632 173.654 305.8V305.56C173.654 304.784 173.73 304.136 173.882 303.616C174.042 303.088 174.262 302.668 174.542 302.356C174.822 302.044 175.142 301.82 175.502 301.684C175.862 301.548 176.246 301.48 176.654 301.48C177.062 301.48 177.446 301.548 177.806 301.684C178.166 301.82 178.486 302.044 178.766 302.356C179.046 302.668 179.262 303.088 179.414 303.616C179.574 304.136 179.654 304.784 179.654 305.56V305.8C179.654 306.632 179.574 307.328 179.414 307.888C179.262 308.44 179.046 308.88 178.766 309.208C178.486 309.536 178.166 309.772 177.806 309.916C177.446 310.052 177.062 310.12 176.654 310.12ZM176.654 309.136C176.91 309.136 177.15 309.092 177.374 309.004C177.598 308.908 177.794 308.74 177.962 308.5C178.138 308.252 178.274 307.912 178.37 307.48C178.474 307.04 178.526 306.48 178.526 305.8V305.56C178.526 304.728 178.438 304.088 178.262 303.64C178.094 303.192 177.866 302.884 177.578 302.716C177.298 302.548 176.99 302.464 176.654 302.464C176.318 302.464 176.006 302.548 175.718 302.716C175.438 302.884 175.21 303.192 175.034 303.64C174.866 304.088 174.782 304.728 174.782 305.56V305.8C174.782 306.48 174.83 307.04 174.926 307.48C175.03 307.912 175.166 308.252 175.334 308.5C175.51 308.74 175.71 308.908 175.934 309.004C176.166 309.092 176.406 309.136 176.654 309.136Z" fill="#0D5552"/>
<path d="M290.173 310V309.076L293.533 306.16C293.877 305.872 294.141 305.62 294.325 305.404C294.509 305.18 294.633 304.968 294.697 304.768C294.769 304.568 294.805 304.352 294.805 304.12C294.805 303.648 294.665 303.26 294.385 302.956C294.105 302.644 293.721 302.488 293.233 302.488C292.649 302.488 292.201 302.648 291.889 302.968C291.577 303.28 291.421 303.724 291.421 304.3H290.293C290.293 303.748 290.413 303.26 290.653 302.836C290.901 302.412 291.245 302.08 291.685 301.84C292.133 301.6 292.649 301.48 293.233 301.48C293.801 301.48 294.285 301.596 294.685 301.828C295.093 302.052 295.401 302.364 295.609 302.764C295.825 303.156 295.933 303.608 295.933 304.12C295.933 304.504 295.857 304.856 295.705 305.176C295.553 305.488 295.341 305.784 295.069 306.064C294.805 306.344 294.497 306.636 294.145 306.94L291.637 309.016H296.053V310H290.173ZM300.374 310.12C299.966 310.12 299.582 310.052 299.222 309.916C298.862 309.772 298.542 309.536 298.262 309.208C297.982 308.88 297.762 308.44 297.602 307.888C297.45 307.328 297.374 306.632 297.374 305.8V305.56C297.374 304.784 297.45 304.136 297.602 303.616C297.762 303.088 297.982 302.668 298.262 302.356C298.542 302.044 298.862 301.82 299.222 301.684C299.582 301.548 299.966 301.48 300.374 301.48C300.782 301.48 301.166 301.548 301.526 301.684C301.886 301.82 302.206 302.044 302.486 302.356C302.766 302.668 302.982 303.088 303.134 303.616C303.294 304.136 303.374 304.784 303.374 305.56V305.8C303.374 306.632 303.294 307.328 303.134 307.888C302.982 308.44 302.766 308.88 302.486 309.208C302.206 309.536 301.886 309.772 301.526 309.916C301.166 310.052 300.782 310.12 300.374 310.12ZM300.374 309.136C300.63 309.136 300.87 309.092 301.094 309.004C301.318 308.908 301.514 308.74 301.682 308.5C301.858 308.252 301.994 307.912 302.09 307.48C302.194 307.04 302.246 306.48 302.246 305.8V305.56C302.246 304.728 302.158 304.088 301.982 303.64C301.814 303.192 301.586 302.884 301.298 302.716C301.018 302.548 300.71 302.464 300.374 302.464C300.038 302.464 299.726 302.548 299.438 302.716C299.158 302.884 298.93 303.192 298.754 303.64C298.586 304.088 298.502 304.728 298.502 305.56V305.8C298.502 306.48 298.55 307.04 298.646 307.48C298.75 307.912 298.886 308.252 299.054 308.5C299.23 308.74 299.43 308.908 299.654 309.004C299.886 309.092 300.126 309.136 300.374 309.136ZM304.576 310V309.076L307.936 306.16C308.28 305.872 308.544 305.62 308.728 305.404C308.912 305.18 309.036 304.968 309.1 304.768C309.172 304.568 309.208 304.352 309.208 304.12C309.208 303.648 309.068 303.26 308.788 302.956C308.508 302.644 308.124 302.488 307.636 302.488C307.052 302.488 306.604 302.648 306.292 302.968C305.98 303.28 305.824 303.724 305.824 304.3H304.696C304.696 303.748 304.816 303.26 305.056 302.836C305.304 302.412 305.648 302.08 306.088 301.84C306.536 301.6 307.052 301.48 307.636 301.48C308.204 301.48 308.688 301.596 309.088 301.828C309.496 302.052 309.804 302.364 310.012 302.764C310.228 303.156 310.336 303.608 310.336 304.12C310.336 304.504 310.26 304.856 310.108 305.176C309.956 305.488 309.744 305.784 309.472 306.064C309.208 306.344 308.9 306.636 308.548 306.94L306.04 309.016H310.456V310H304.576ZM311.717 310V309.016H313.721V302.836L311.717 304.264V303.04L313.745 301.6H314.873V309.016H316.517V310H311.717Z" fill="#0D5552"/>
<path d="M427.918 310V309.076L431.278 306.16C431.622 305.872 431.886 305.62 432.07 305.404C432.254 305.18 432.378 304.968 432.442 304.768C432.514 304.568 432.55 304.352 432.55 304.12C432.55 303.648 432.41 303.26 432.13 302.956C431.85 302.644 431.466 302.488 430.978 302.488C430.394 302.488 429.946 302.648 429.634 302.968C429.322 303.28 429.166 303.724 429.166 304.3H428.038C428.038 303.748 428.158 303.26 428.398 302.836C428.646 302.412 428.99 302.08 429.43 301.84C429.878 301.6 430.394 301.48 430.978 301.48C431.546 301.48 432.03 301.596 432.43 301.828C432.838 302.052 433.146 302.364 433.354 302.764C433.57 303.156 433.678 303.608 433.678 304.12C433.678 304.504 433.602 304.856 433.45 305.176C433.298 305.488 433.086 305.784 432.814 306.064C432.55 306.344 432.242 306.636 431.89 306.94L429.382 309.016H433.798V310H427.918ZM438.119 310.12C437.711 310.12 437.327 310.052 436.967 309.916C436.607 309.772 436.287 309.536 436.007 309.208C435.727 308.88 435.507 308.44 435.347 307.888C435.195 307.328 435.119 306.632 435.119 305.8V305.56C435.119 304.784 435.195 304.136 435.347 303.616C435.507 303.088 435.727 302.668 436.007 302.356C436.287 302.044 436.607 301.82 436.967 301.684C437.327 301.548 437.711 301.48 438.119 301.48C438.527 301.48 438.911 301.548 439.271 301.684C439.631 301.82 439.951 302.044 440.231 302.356C440.511 302.668 440.727 303.088 440.879 303.616C441.039 304.136 441.119 304.784 441.119 305.56V305.8C441.119 306.632 441.039 307.328 440.879 307.888C440.727 308.44 440.511 308.88 440.231 309.208C439.951 309.536 439.631 309.772 439.271 309.916C438.911 310.052 438.527 310.12 438.119 310.12ZM438.119 309.136C438.375 309.136 438.615 309.092 438.839 309.004C439.063 308.908 439.259 308.74 439.427 308.5C439.603 308.252 439.739 307.912 439.835 307.48C439.939 307.04 439.991 306.48 439.991 305.8V305.56C439.991 304.728 439.903 304.088 439.727 303.64C439.559 303.192 439.331 302.884 439.043 302.716C438.763 302.548 438.455 302.464 438.119 302.464C437.783 302.464 437.471 302.548 437.183 302.716C436.903 302.884 436.675 303.192 436.499 303.64C436.331 304.088 436.247 304.728 436.247 305.56V305.8C436.247 306.48 436.295 307.04 436.391 307.48C436.495 307.912 436.631 308.252 436.799 308.5C436.975 308.74 437.175 308.908 437.399 309.004C437.631 309.092 437.871 309.136 438.119 309.136ZM442.321 310V309.076L445.681 306.16C446.025 305.872 446.289 305.62 446.473 305.404C446.657 305.18 446.781 304.968 446.845 304.768C446.917 304.568 446.953 304.352 446.953 304.12C446.953 303.648 446.813 303.26 446.533 302.956C446.253 302.644 445.869 302.488 445.381 302.488C444.797 302.488 444.349 302.648 444.037 302.968C443.725 303.28 443.569 303.724 443.569 304.3H442.441C442.441 303.748 442.561 303.26 442.801 302.836C443.049 302.412 443.393 302.08 443.833 301.84C444.281 301.6 444.797 301.48 445.381 301.48C445.949 301.48 446.433 301.596 446.833 301.828C447.241 302.052 447.549 302.364 447.757 302.764C447.973 303.156 448.081 303.608 448.081 304.12C448.081 304.504 448.005 304.856 447.853 305.176C447.701 305.488 447.489 305.784 447.217 306.064C446.953 306.344 446.645 306.636 446.293 306.94L443.785 309.016H448.201V310H442.321ZM449.282 310V309.076L452.642 306.16C452.986 305.872 453.25 305.62 453.434 305.404C453.618 305.18 453.742 304.968 453.806 304.768C453.878 304.568 453.914 304.352 453.914 304.12C453.914 303.648 453.774 303.26 453.494 302.956C453.214 302.644 452.83 302.488 452.342 302.488C451.758 302.488 451.31 302.648 450.998 302.968C450.686 303.28 450.53 303.724 450.53 304.3H449.402C449.402 303.748 449.522 303.26 449.762 302.836C450.01 302.412 450.354 302.08 450.794 301.84C451.242 301.6 451.758 301.48 452.342 301.48C452.91 301.48 453.394 301.596 453.794 301.828C454.202 302.052 454.51 302.364 454.718 302.764C454.934 303.156 455.042 303.608 455.042 304.12C455.042 304.504 454.966 304.856 454.814 305.176C454.662 305.488 454.45 305.784 454.178 306.064C453.914 306.344 453.606 306.636 453.254 306.94L450.746 309.016H455.162V310H449.282Z" fill="#0D5552"/>
<path d="M559.147 310V309.076L562.507 306.16C562.851 305.872 563.115 305.62 563.299 305.404C563.483 305.18 563.607 304.968 563.671 304.768C563.743 304.568 563.779 304.352 563.779 304.12C563.779 303.648 563.639 303.26 563.359 302.956C563.079 302.644 562.695 302.488 562.207 302.488C561.623 302.488 561.175 302.648 560.863 302.968C560.551 303.28 560.395 303.724 560.395 304.3H559.267C559.267 303.748 559.387 303.26 559.627 302.836C559.875 302.412 560.219 302.08 560.659 301.84C561.107 301.6 561.623 301.48 562.207 301.48C562.775 301.48 563.259 301.596 563.659 301.828C564.067 302.052 564.375 302.364 564.583 302.764C564.799 303.156 564.907 303.608 564.907 304.12C564.907 304.504 564.831 304.856 564.679 305.176C564.527 305.488 564.315 305.784 564.043 306.064C563.779 306.344 563.471 306.636 563.119 306.94L560.611 309.016H565.027V310H559.147ZM569.348 310.12C568.94 310.12 568.556 310.052 568.196 309.916C567.836 309.772 567.516 309.536 567.236 309.208C566.956 308.88 566.736 308.44 566.576 307.888C566.424 307.328 566.348 306.632 566.348 305.8V305.56C566.348 304.784 566.424 304.136 566.576 303.616C566.736 303.088 566.956 302.668 567.236 302.356C567.516 302.044 567.836 301.82 568.196 301.684C568.556 301.548 568.94 301.48 569.348 301.48C569.756 301.48 570.14 301.548 570.5 301.684C570.86 301.82 571.18 302.044 571.46 302.356C571.74 302.668 571.956 303.088 572.108 303.616C572.268 304.136 572.348 304.784 572.348 305.56V305.8C572.348 306.632 572.268 307.328 572.108 307.888C571.956 308.44 571.74 308.88 571.46 309.208C571.18 309.536 570.86 309.772 570.5 309.916C570.14 310.052 569.756 310.12 569.348 310.12ZM569.348 309.136C569.604 309.136 569.844 309.092 570.068 309.004C570.292 308.908 570.488 308.74 570.656 308.5C570.832 308.252 570.968 307.912 571.064 307.48C571.168 307.04 571.22 306.48 571.22 305.8V305.56C571.22 304.728 571.132 304.088 570.956 303.64C570.788 303.192 570.56 302.884 570.272 302.716C569.992 302.548 569.684 302.464 569.348 302.464C569.012 302.464 568.7 302.548 568.412 302.716C568.132 302.884 567.904 303.192 567.728 303.64C567.56 304.088 567.476 304.728 567.476 305.56V305.8C567.476 306.48 567.524 307.04 567.62 307.48C567.724 307.912 567.86 308.252 568.028 308.5C568.204 308.74 568.404 308.908 568.628 309.004C568.86 309.092 569.1 309.136 569.348 309.136ZM573.549 310V309.076L576.909 306.16C577.253 305.872 577.517 305.62 577.701 305.404C577.885 305.18 578.009 304.968 578.073 304.768C578.145 304.568 578.181 304.352 578.181 304.12C578.181 303.648 578.041 303.26 577.761 302.956C577.481 302.644 577.097 302.488 576.609 302.488C576.025 302.488 575.577 302.648 575.265 302.968C574.953 303.28 574.797 303.724 574.797 304.3H573.669C573.669 303.748 573.789 303.26 574.029 302.836C574.277 302.412 574.621 302.08 575.061 301.84C575.509 301.6 576.025 301.48 576.609 301.48C577.177 301.48 577.661 301.596 578.061 301.828C578.469 302.052 578.777 302.364 578.985 302.764C579.201 303.156 579.309 303.608 579.309 304.12C579.309 304.504 579.233 304.856 579.081 305.176C578.929 305.488 578.717 305.784 578.445 306.064C578.181 306.344 577.873 306.636 577.521 306.94L575.013 309.016H579.429V310H573.549ZM583.45 310.12C582.842 310.12 582.322 310.016 581.89 309.808C581.466 309.592 581.138 309.304 580.906 308.944C580.682 308.576 580.57 308.168 580.57 307.72H581.698C581.698 308.128 581.838 308.464 582.118 308.728C582.398 308.984 582.842 309.112 583.45 309.112C584.058 309.112 584.502 308.98 584.782 308.716C585.062 308.444 585.202 308.092 585.202 307.66C585.202 307.212 585.058 306.852 584.77 306.58C584.49 306.3 584.05 306.16 583.45 306.16H582.55V305.2H583.45C584.026 305.2 584.442 305.08 584.698 304.84C584.954 304.592 585.082 304.252 585.082 303.82C585.082 303.404 584.958 303.08 584.71 302.848C584.462 302.608 584.042 302.488 583.45 302.488C582.882 302.488 582.466 302.612 582.202 302.86C581.946 303.1 581.818 303.4 581.818 303.76H580.69C580.69 303.336 580.798 302.952 581.014 302.608C581.23 302.264 581.542 301.992 581.95 301.792C582.366 301.584 582.866 301.48 583.45 301.48C584.042 301.48 584.542 301.584 584.95 301.792C585.366 301.992 585.678 302.26 585.886 302.596C586.102 302.932 586.21 303.3 586.21 303.7C586.21 304.18 586.082 304.588 585.826 304.924C585.578 305.252 585.226 305.484 584.77 305.62C585.25 305.772 585.63 306.02 585.91 306.364C586.19 306.708 586.33 307.18 586.33 307.78C586.33 308.204 586.218 308.596 585.994 308.956C585.77 309.308 585.442 309.592 585.01 309.808C584.586 310.016 584.066 310.12 583.45 310.12Z" fill="#0D5552"/>
<path d="M11.2786 287.12C10.8706 287.12 10.4866 287.052 10.1266 286.916C9.76659 286.772 9.44659 286.536 9.16659 286.208C8.88659 285.88 8.66659 285.44 8.50659 284.888C8.35459 284.328 8.27859 283.632 8.27859 282.8V282.56C8.27859 281.784 8.35459 281.136 8.50659 280.616C8.66659 280.088 8.88659 279.668 9.16659 279.356C9.44659 279.044 9.76659 278.82 10.1266 278.684C10.4866 278.548 10.8706 278.48 11.2786 278.48C11.6866 278.48 12.0706 278.548 12.4306 278.684C12.7906 278.82 13.1106 279.044 13.3906 279.356C13.6706 279.668 13.8866 280.088 14.0386 280.616C14.1986 281.136 14.2786 281.784 14.2786 282.56V282.8C14.2786 283.632 14.1986 284.328 14.0386 284.888C13.8866 285.44 13.6706 285.88 13.3906 286.208C13.1106 286.536 12.7906 286.772 12.4306 286.916C12.0706 287.052 11.6866 287.12 11.2786 287.12ZM11.2786 286.136C11.5346 286.136 11.7746 286.092 11.9986 286.004C12.2226 285.908 12.4186 285.74 12.5866 285.5C12.7626 285.252 12.8986 284.912 12.9946 284.48C13.0986 284.04 13.1506 283.48 13.1506 282.8V282.56C13.1506 281.728 13.0626 281.088 12.8866 280.64C12.7186 280.192 12.4906 279.884 12.2026 279.716C11.9226 279.548 11.6146 279.464 11.2786 279.464C10.9426 279.464 10.6306 279.548 10.3426 279.716C10.0626 279.884 9.83459 280.192 9.65859 280.64C9.49059 281.088 9.40659 281.728 9.40659 282.56V282.8C9.40659 283.48 9.45459 284.04 9.55059 284.48C9.65459 284.912 9.79059 285.252 9.95859 285.5C10.1346 285.74 10.3346 285.908 10.5586 286.004C10.7906 286.092 11.0306 286.136 11.2786 286.136Z" fill="#0D5552"/>
<path d="M1.07766 219V218.076L4.43766 215.16C4.78166 214.872 5.04566 214.62 5.22966 214.404C5.41366 214.18 5.53766 213.968 5.60166 213.768C5.67366 213.568 5.70966 213.352 5.70966 213.12C5.70966 212.648 5.56966 212.26 5.28966 211.956C5.00966 211.644 4.62566 211.488 4.13766 211.488C3.55366 211.488 3.10566 211.648 2.79366 211.968C2.48166 212.28 2.32566 212.724 2.32566 213.3H1.19766C1.19766 212.748 1.31766 212.26 1.55766 211.836C1.80566 211.412 2.14966 211.08 2.58966 210.84C3.03766 210.6 3.55366 210.48 4.13766 210.48C4.70566 210.48 5.18966 210.596 5.58966 210.828C5.99766 211.052 6.30566 211.364 6.51366 211.764C6.72966 212.156 6.83766 212.608 6.83766 213.12C6.83766 213.504 6.76166 213.856 6.60966 214.176C6.45766 214.488 6.24566 214.784 5.97366 215.064C5.70966 215.344 5.40166 215.636 5.04966 215.94L2.54166 218.016H6.95766V219H1.07766ZM11.2786 219.12C10.8706 219.12 10.4866 219.052 10.1266 218.916C9.76659 218.772 9.44659 218.536 9.16659 218.208C8.88659 217.88 8.66659 217.44 8.50659 216.888C8.35459 216.328 8.27859 215.632 8.27859 214.8V214.56C8.27859 213.784 8.35459 213.136 8.50659 212.616C8.66659 212.088 8.88659 211.668 9.16659 211.356C9.44659 211.044 9.76659 210.82 10.1266 210.684C10.4866 210.548 10.8706 210.48 11.2786 210.48C11.6866 210.48 12.0706 210.548 12.4306 210.684C12.7906 210.82 13.1106 211.044 13.3906 211.356C13.6706 211.668 13.8866 212.088 14.0386 212.616C14.1986 213.136 14.2786 213.784 14.2786 214.56V214.8C14.2786 215.632 14.1986 216.328 14.0386 216.888C13.8866 217.44 13.6706 217.88 13.3906 218.208C13.1106 218.536 12.7906 218.772 12.4306 218.916C12.0706 219.052 11.6866 219.12 11.2786 219.12ZM11.2786 218.136C11.5346 218.136 11.7746 218.092 11.9986 218.004C12.2226 217.908 12.4186 217.74 12.5866 217.5C12.7626 217.252 12.8986 216.912 12.9946 216.48C13.0986 216.04 13.1506 215.48 13.1506 214.8V214.56C13.1506 213.728 13.0626 213.088 12.8866 212.64C12.7186 212.192 12.4906 211.884 12.2026 211.716C11.9226 211.548 11.6146 211.464 11.2786 211.464C10.9426 211.464 10.6306 211.548 10.3426 211.716C10.0626 211.884 9.83459 212.192 9.65859 212.64C9.49059 213.088 9.40659 213.728 9.40659 214.56V214.8C9.40659 215.48 9.45459 216.04 9.55059 216.48C9.65459 216.912 9.79059 217.252 9.95859 217.5C10.1346 217.74 10.3346 217.908 10.5586 218.004C10.7906 218.092 11.0306 218.136 11.2786 218.136Z" fill="#0D5552"/>
<path d="M4.74638 151V148.972H0.474375V148.108L4.62638 142.6H5.87438V147.988H6.95438V148.972H5.87438V151H4.74638ZM1.67438 147.988H4.74638V143.92L1.67438 147.988ZM11.2786 151.12C10.8706 151.12 10.4866 151.052 10.1266 150.916C9.76659 150.772 9.44659 150.536 9.16659 150.208C8.88659 149.88 8.66659 149.44 8.50659 148.888C8.35459 148.328 8.27859 147.632 8.27859 146.8V146.56C8.27859 145.784 8.35459 145.136 8.50659 144.616C8.66659 144.088 8.88659 143.668 9.16659 143.356C9.44659 143.044 9.76659 142.82 10.1266 142.684C10.4866 142.548 10.8706 142.48 11.2786 142.48C11.6866 142.48 12.0706 142.548 12.4306 142.684C12.7906 142.82 13.1106 143.044 13.3906 143.356C13.6706 143.668 13.8866 144.088 14.0386 144.616C14.1986 145.136 14.2786 145.784 14.2786 146.56V146.8C14.2786 147.632 14.1986 148.328 14.0386 148.888C13.8866 149.44 13.6706 149.88 13.3906 150.208C13.1106 150.536 12.7906 150.772 12.4306 150.916C12.0706 151.052 11.6866 151.12 11.2786 151.12ZM11.2786 150.136C11.5346 150.136 11.7746 150.092 11.9986 150.004C12.2226 149.908 12.4186 149.74 12.5866 149.5C12.7626 149.252 12.8986 148.912 12.9946 148.48C13.0986 148.04 13.1506 147.48 13.1506 146.8V146.56C13.1506 145.728 13.0626 145.088 12.8866 144.64C12.7186 144.192 12.4906 143.884 12.2026 143.716C11.9226 143.548 11.6146 143.464 11.2786 143.464C10.9426 143.464 10.6306 143.548 10.3426 143.716C10.0626 143.884 9.83459 144.192 9.65859 144.64C9.49059 145.088 9.40659 145.728 9.40659 146.56V146.8C9.40659 147.48 9.45459 148.04 9.55059 148.48C9.65459 148.912 9.79059 149.252 9.95859 149.5C10.1346 149.74 10.3346 149.908 10.5586 150.004C10.7906 150.092 11.0306 150.136 11.2786 150.136Z" fill="#0D5552"/>
<path d="M4.07297 83.12C3.14497 83.12 2.40097 82.812 1.84097 82.196C1.28897 81.572 1.01297 80.6 1.01297 79.28V79.04C1.01297 77.936 1.15697 77.052 1.44497 76.388C1.73297 75.716 2.11697 75.232 2.59697 74.936C3.07697 74.632 3.60897 74.48 4.19297 74.48C4.62497 74.48 5.01297 74.548 5.35697 74.684C5.70097 74.82 5.98897 75.028 6.22097 75.308C6.45297 75.58 6.61697 75.924 6.71297 76.34H5.58497C5.47297 76.06 5.30097 75.848 5.06897 75.704C4.83697 75.56 4.54497 75.488 4.19297 75.488C3.79297 75.488 3.43297 75.584 3.11297 75.776C2.80097 75.968 2.54897 76.292 2.35697 76.748C2.17297 77.196 2.06897 77.82 2.04497 78.62C2.27697 78.228 2.58897 77.952 2.98097 77.792C3.37297 77.624 3.75697 77.54 4.13297 77.54C4.69297 77.54 5.17697 77.648 5.58497 77.864C6.00097 78.072 6.32097 78.376 6.54497 78.776C6.77697 79.176 6.89297 79.668 6.89297 80.252V80.372C6.89297 80.9 6.76497 81.372 6.50897 81.788C6.25297 82.204 5.91297 82.532 5.48897 82.772C5.06497 83.004 4.59297 83.12 4.07297 83.12ZM3.97697 82.112C4.56097 82.112 5.00497 81.964 5.30897 81.668C5.61297 81.372 5.76497 80.944 5.76497 80.384V80.264C5.76497 79.712 5.61297 79.288 5.30897 78.992C5.00497 78.696 4.56097 78.548 3.97697 78.548C3.39297 78.548 2.94897 78.696 2.64497 78.992C2.34097 79.288 2.18897 79.712 2.18897 80.264V80.384C2.18897 80.936 2.34097 81.364 2.64497 81.668C2.94897 81.964 3.39297 82.112 3.97697 82.112ZM11.2786 83.12C10.8706 83.12 10.4866 83.052 10.1266 82.916C9.76659 82.772 9.44659 82.536 9.16659 82.208C8.88659 81.88 8.66659 81.44 8.50659 80.888C8.35459 80.328 8.27859 79.632 8.27859 78.8V78.56C8.27859 77.784 8.35459 77.136 8.50659 76.616C8.66659 76.088 8.88659 75.668 9.16659 75.356C9.44659 75.044 9.76659 74.82 10.1266 74.684C10.4866 74.548 10.8706 74.48 11.2786 74.48C11.6866 74.48 12.0706 74.548 12.4306 74.684C12.7906 74.82 13.1106 75.044 13.3906 75.356C13.6706 75.668 13.8866 76.088 14.0386 76.616C14.1986 77.136 14.2786 77.784 14.2786 78.56V78.8C14.2786 79.632 14.1986 80.328 14.0386 80.888C13.8866 81.44 13.6706 81.88 13.3906 82.208C13.1106 82.536 12.7906 82.772 12.4306 82.916C12.0706 83.052 11.6866 83.12 11.2786 83.12ZM11.2786 82.136C11.5346 82.136 11.7746 82.092 11.9986 82.004C12.2226 81.908 12.4186 81.74 12.5866 81.5C12.7626 81.252 12.8986 80.912 12.9946 80.48C13.0986 80.04 13.1506 79.48 13.1506 78.8V78.56C13.1506 77.728 13.0626 77.088 12.8866 76.64C12.7186 76.192 12.4906 75.884 12.2026 75.716C11.9226 75.548 11.6146 75.464 11.2786 75.464C10.9426 75.464 10.6306 75.548 10.3426 75.716C10.0626 75.884 9.83459 76.192 9.65859 76.64C9.49059 77.088 9.40659 77.728 9.40659 78.56V78.8C9.40659 79.48 9.45459 80.04 9.55059 80.48C9.65459 80.912 9.79059 81.252 9.95859 81.5C10.1346 81.74 10.3346 81.908 10.5586 82.004C10.7906 82.092 11.0306 82.136 11.2786 82.136Z" fill="#0D5552"/>
<path d="M3.89438 15.12C3.23038 15.12 2.67438 15.02 2.22638 14.82C1.78638 14.612 1.45438 14.332 1.23038 13.98C1.00638 13.62 0.894375 13.22 0.894375 12.78C0.894375 12.3 1.04638 11.872 1.35038 11.496C1.65438 11.112 2.10238 10.84 2.69438 10.68C2.26238 10.536 1.89438 10.292 1.59038 9.948C1.28638 9.604 1.13438 9.188 1.13438 8.7C1.13438 8.284 1.23838 7.908 1.44638 7.572C1.66238 7.236 1.97438 6.972 2.38238 6.78C2.79838 6.58 3.30238 6.48 3.89438 6.48C4.49438 6.48 4.99838 6.58 5.40638 6.78C5.81438 6.972 6.12238 7.236 6.33038 7.572C6.54638 7.908 6.65438 8.284 6.65438 8.7C6.65438 9.18 6.50238 9.588 6.19838 9.924C5.90238 10.26 5.53438 10.512 5.09438 10.68C5.69438 10.88 6.14238 11.144 6.43838 11.472C6.74238 11.8 6.89438 12.236 6.89438 12.78C6.89438 13.22 6.78238 13.62 6.55838 13.98C6.33438 14.332 5.99838 14.612 5.55038 14.82C5.11038 15.02 4.55838 15.12 3.89438 15.12ZM3.89438 14.112C4.35838 14.112 4.72638 14.048 4.99838 13.92C5.27038 13.792 5.46638 13.624 5.58638 13.416C5.70638 13.2 5.76638 12.964 5.76638 12.708C5.76638 12.26 5.59038 11.896 5.23838 11.616C4.88638 11.336 4.43838 11.164 3.89438 11.1C3.35038 11.164 2.90238 11.332 2.55038 11.604C2.19838 11.876 2.02238 12.244 2.02238 12.708C2.02238 12.964 2.08238 13.2 2.20238 13.416C2.32238 13.624 2.51838 13.792 2.79038 13.92C3.06238 14.048 3.43038 14.112 3.89438 14.112ZM3.89438 10.26C4.37438 10.196 4.76638 10.044 5.07038 9.804C5.37438 9.556 5.52638 9.208 5.52638 8.76C5.52638 8.352 5.39038 8.04 5.11838 7.824C4.85438 7.6 4.44638 7.488 3.89438 7.488C3.33438 7.488 2.92238 7.6 2.65838 7.824C2.39438 8.04 2.26238 8.352 2.26238 8.76C2.26238 9.208 2.41438 9.556 2.71838 9.804C3.02238 10.044 3.41438 10.196 3.89438 10.26ZM11.2786 15.12C10.8706 15.12 10.4866 15.052 10.1266 14.916C9.76659 14.772 9.44659 14.536 9.16659 14.208C8.88659 13.88 8.66659 13.44 8.50659 12.888C8.35459 12.328 8.27859 11.632 8.27859 10.8V10.56C8.27859 9.784 8.35459 9.136 8.50659 8.616C8.66659 8.088 8.88659 7.668 9.16659 7.356C9.44659 7.044 9.76659 6.82 10.1266 6.684C10.4866 6.548 10.8706 6.48 11.2786 6.48C11.6866 6.48 12.0706 6.548 12.4306 6.684C12.7906 6.82 13.1106 7.044 13.3906 7.356C13.6706 7.668 13.8866 8.088 14.0386 8.616C14.1986 9.136 14.2786 9.784 14.2786 10.56V10.8C14.2786 11.632 14.1986 12.328 14.0386 12.888C13.8866 13.44 13.6706 13.88 13.3906 14.208C13.1106 14.536 12.7906 14.772 12.4306 14.916C12.0706 15.052 11.6866 15.12 11.2786 15.12ZM11.2786 14.136C11.5346 14.136 11.7746 14.092 11.9986 14.004C12.2226 13.908 12.4186 13.74 12.5866 13.5C12.7626 13.252 12.8986 12.912 12.9946 12.48C13.0986 12.04 13.1506 11.48 13.1506 10.8V10.56C13.1506 9.728 13.0626 9.088 12.8866 8.64C12.7186 8.192 12.4906 7.884 12.2026 7.716C11.9226 7.548 11.6146 7.464 11.2786 7.464C10.9426 7.464 10.6306 7.548 10.3426 7.716C10.0626 7.884 9.83459 8.192 9.65859 8.64C9.49059 9.088 9.40659 9.728 9.40659 10.56V10.8C9.40659 11.48 9.45459 12.04 9.55059 12.48C9.65459 12.912 9.79059 13.252 9.95859 13.5C10.1346 13.74 10.3346 13.908 10.5586 14.004C10.7906 14.092 11.0306 14.136 11.2786 14.136Z" fill="#0D5552"/>
<path d="M27 206.129C27 206.129 111.15 181.516 167.25 181.516C223.35 181.516 251.4 258.871 307.5 258.871C363.6 258.871 391.65 258.871 447.75 227.226C503.85 195.581 588 69 588 69V287C588 287 503.85 287 447.75 287C391.65 287 363.6 287 307.5 287C251.4 287 223.35 287 167.25 287C111.15 287 27 287 27 287V206.129Z" fill="#24C5C1"/>
</svg>
