<svg width="110" height="110" viewBox="0 0 110 110" fill="none" xmlns="http://www.w3.org/2000/svg">
<path fill-rule="evenodd" clip-rule="evenodd" d="M19.3682 73.6986C19.8225 73.6986 20.2596 73.8812 20.5792 74.208C20.8988 74.5361 21.0717 74.978 21.0664 75.4345C21.0638 75.8169 21.18 85.1661 35.4231 92.5915C35.4825 92.6219 44.1102 96.9234 48.4419 97.5148C51.5599 97.9422 53.706 99.7522 55.0002 101.284C56.2944 99.7522 58.4405 97.9422 61.5585 97.5148C65.8902 96.9234 74.5179 92.6219 74.6037 92.5782C88.963 85.092 88.9393 75.5271 88.9367 75.4345C88.9274 74.978 89.1017 74.5361 89.4213 74.208C89.7409 73.8812 90.178 73.6986 90.6323 73.6986C92.6661 73.6986 93.8507 74.5956 94.4873 75.3472C94.5428 75.4133 94.5969 75.4822 94.6484 75.5496C98.7939 65.5256 95.4646 56.7996 93.0254 52.3725C90.6244 60.6023 86.7325 66.7548 83.8099 70.5416C83.9697 70.6051 84.1269 70.6885 84.2774 70.7903C85.4607 71.5617 85.6852 72.9947 85.5215 73.9831C83.2923 86.3066 72.2082 87.2844 72.0946 87.295H72.076C68.7375 87.295 66.0144 86.1333 63.8472 83.8483C57.73 77.3861 58.3665 63.9749 58.3969 63.4113L58.393 41.4011C58.393 40.463 59.1524 39.6996 60.0913 39.6996H77.0602C77.9926 39.6996 78.7572 38.9375 78.7572 37.9994C78.7572 37.0639 77.9926 36.2978 77.0602 36.2978H60.0913C59.1524 36.2978 58.393 35.5384 58.393 34.6003V28.3392C58.393 27.6843 58.772 27.0863 59.3623 26.8057C63.0377 25.0513 65.3184 21.2909 65.1731 17.221C64.9816 11.8968 60.4967 7.48945 55.1772 7.40212C52.4382 7.36243 49.8246 8.3958 47.8608 10.3289C45.8984 12.2606 44.8207 14.8407 44.8207 17.6021C44.8207 21.5066 47.1042 25.1201 50.6408 26.8057C51.2298 27.0863 51.6049 27.6843 51.6049 28.3392V34.6003C51.6049 35.5384 50.8482 36.2978 49.9092 36.2978H32.9416C32.0079 36.2978 31.2459 37.0639 31.2459 37.9994C31.2459 38.9375 32.0079 39.6996 32.9416 39.6996H49.9092C50.8482 39.6996 51.6049 40.463 51.6049 41.4011V63.5C51.6339 63.9776 52.2704 77.3861 46.1519 83.8483C43.9834 86.1386 41.2511 87.2976 38.0327 87.2976C37.7924 87.2844 26.7069 86.3066 24.4856 74.0016C24.3153 72.9947 24.5397 71.5617 25.7217 70.7903C25.8736 70.6885 26.0308 70.6051 26.1919 70.5416C23.2627 66.7456 19.3681 60.5811 16.9646 52.3248C14.4871 56.7269 11.1181 65.4238 15.3455 75.5563C15.4023 75.4861 15.4564 75.4173 15.5145 75.3472C16.151 74.5956 17.3357 73.6986 19.3682 73.6986ZM55.0002 106C54.3452 106 53.7496 105.622 53.4669 105.031C53.4551 105.002 51.6524 101.385 47.9824 100.885C43.096 100.217 34.2556 95.808 33.8806 95.6214C21.9169 89.3829 18.7752 81.6135 17.9564 77.7553C17.5443 78.4803 17.5628 79.7148 17.646 80.2203C17.7807 81.0247 17.3278 81.808 16.5658 82.0898C15.8011 82.3756 14.9493 82.0805 14.524 81.3859C3.42011 63.1334 16.2342 47.2731 16.365 47.1157C16.7783 46.6129 17.4479 46.3946 18.0726 46.5507C18.7052 46.7042 19.1911 47.2057 19.3325 47.8395C22.6657 63.3346 32.2959 72.3583 32.3923 72.4482C33.0434 73.0489 33.1265 74.0479 32.5811 74.7465C32.037 75.4411 31.0505 75.6092 30.3123 75.1196C29.1422 74.3509 28.3894 74.0016 27.9404 73.8481C29.8936 83.1748 38.0736 83.8986 38.1581 83.9065C40.3134 83.8999 42.1663 83.1179 43.6877 81.5103C48.8144 76.0934 48.2227 63.713 48.2148 63.5899L48.2135 43.0974H32.9416C30.1353 43.0974 27.8506 40.8123 27.8506 37.9994C27.8506 35.1877 30.1353 32.8987 32.9416 32.8987H48.2135V29.3647C44.0588 26.95 41.4254 22.4447 41.4254 17.5994C41.4254 13.9264 42.8675 10.4797 45.4837 7.90225C48.0946 5.32745 51.5058 3.94479 55.23 4.00169C62.3258 4.11945 68.311 9.99543 68.5658 17.1006C68.7468 22.1589 66.1161 26.8573 61.787 29.3647V32.8987H77.0602C79.8652 32.8987 82.1499 35.1877 82.1499 37.9994C82.1499 40.8123 79.8652 43.0974 77.0602 43.0974H61.787V63.4986C61.7778 63.713 61.2006 76.1146 66.3154 81.5103C67.8394 83.1179 69.687 83.8999 71.9678 83.8999C72.1804 83.8747 80.1768 83.0927 82.0904 73.8362C81.6441 73.9857 80.8834 74.3323 79.6882 75.1196C78.9474 75.6092 77.9635 75.4411 77.4194 74.7465C76.8739 74.0479 76.9571 73.0476 77.6082 72.4482C77.7073 72.3583 87.3373 63.3319 90.6706 47.8395C90.8093 47.2057 91.2953 46.7042 91.9279 46.5507C92.5579 46.3946 93.2195 46.6129 93.6355 47.1157C93.7662 47.2731 106.58 63.1347 95.4751 81.3859C95.0525 82.0805 94.1994 82.3756 93.4347 82.0898C92.6727 81.808 92.2184 81.0247 92.3531 80.2203C92.435 79.6923 92.4521 78.4711 92.0441 77.7553C91.2253 81.6135 88.0901 89.3789 76.1476 95.6082C75.7448 95.8053 66.9044 100.217 62.0167 100.885C58.3005 101.393 56.5493 104.996 56.5335 105.031C56.2509 105.622 55.6539 106 55.0002 106Z" fill="#24C5C1"/>
</svg>
