<svg width="74" height="76" viewBox="0 0 74 76" fill="none" xmlns="http://www.w3.org/2000/svg">
<path d="M29.5298 0H2.46082C1.80817 0 1.18225 0.263819 0.720757 0.733419C0.259264 1.20302 0 1.83993 0 2.50405V30.0486C0 30.7127 0.259264 31.3496 0.720757 31.8192C1.18225 32.2888 1.80817 32.5527 2.46082 32.5527H29.5298C30.1825 32.5527 30.8084 32.2888 31.2699 31.8192C31.7314 31.3496 31.9906 30.7127 31.9906 30.0486V2.50405C31.9906 1.83993 31.7314 1.20302 31.2699 0.733419C30.8084 0.263819 30.1825 0 29.5298 0ZM27.069 27.5446H4.92164V5.0081H27.069V27.5446ZM44.2947 32.5527H71.3637C72.0164 32.5527 72.6423 32.2888 73.1038 31.8192C73.5653 31.3496 73.8245 30.7127 73.8245 30.0486V2.50405C73.8245 1.83993 73.5653 1.20302 73.1038 0.733419C72.6423 0.263819 72.0164 0 71.3637 0H44.2947C43.6421 0 43.0162 0.263819 42.5547 0.733419C42.0932 1.20302 41.8339 1.83993 41.8339 2.50405V30.0486C41.8339 30.7127 42.0932 31.3496 42.5547 31.8192C43.0162 32.2888 43.6421 32.5527 44.2947 32.5527ZM46.7555 5.0081H68.9029V27.5446H46.7555V5.0081ZM29.5298 42.5689H2.46082C1.80817 42.5689 1.18225 42.8327 0.720757 43.3023C0.259264 43.7719 0 44.4088 0 45.0729V72.6175C0 73.2816 0.259264 73.9185 0.720757 74.3881C1.18225 74.8577 1.80817 75.1215 2.46082 75.1215H29.5298C30.1825 75.1215 30.8084 74.8577 31.2699 74.3881C31.7314 73.9185 31.9906 73.2816 31.9906 72.6175V45.0729C31.9906 44.4088 31.7314 43.7719 31.2699 43.3023C30.8084 42.8327 30.1825 42.5689 29.5298 42.5689ZM27.069 70.1134H4.92164V47.577H27.069V70.1134ZM74 58.8452C74 59.5093 73.7407 60.1462 73.2792 60.6158C72.8177 61.0854 72.1918 61.3492 71.5392 61.3492H60.29V72.796C60.29 73.4601 60.0308 74.097 59.5693 74.5666C59.1078 75.0362 58.4819 75.3 57.8292 75.3C57.1766 75.3 56.5507 75.0362 56.0892 74.5666C55.6277 74.097 55.3684 73.4601 55.3684 72.796V61.3492H44.1193C43.4666 61.3492 42.8407 61.0854 42.3792 60.6158C41.9177 60.1462 41.6585 59.5093 41.6585 58.8452C41.6585 58.1811 41.9177 57.5441 42.3792 57.0745C42.8407 56.6049 43.4666 56.3411 44.1193 56.3411H55.3684V44.8944C55.3684 44.2302 55.6277 43.5933 56.0892 43.1237C56.5507 42.6541 57.1766 42.3903 57.8292 42.3903C58.4819 42.3903 59.1078 42.6541 59.5693 43.1237C60.0308 43.5933 60.29 44.2302 60.29 44.8944V56.3411H71.5392C72.1918 56.3411 72.8177 56.6049 73.2792 57.0745C73.7407 57.5441 74 58.1811 74 58.8452Z" fill="#24C5C1"/>
</svg>
