<svg width="32" height="32" viewBox="0 0 32 32" fill="none" xmlns="http://www.w3.org/2000/svg">
<path fill-rule="evenodd" clip-rule="evenodd" d="M16.5 32C25.048 32 32 25.0465 32 16.5C32 7.95347 25.0698 0.999998 16.5 0.999998C7.93018 0.999998 1 7.95347 1 16.5C1 25.0465 7.95204 32 16.5 32Z" fill="#00AAA6"/>
<path d="M16.5 0.999998C7.95205 0.999998 1 7.95347 1 16.5C1 25.0465 7.95205 32 16.5 32C25.048 32 32 25.0465 32 16.5C32 7.95347 25.048 0.999998 16.5 0.999998ZM16.5 31.0312C8.49859 31.0312 1.98378 24.5083 1.98378 16.5C1.98378 8.49166 8.49859 1.96875 16.5 1.96875C24.5014 1.96875 31.0162 8.49166 31.0162 16.5C31.0162 24.5083 24.5014 31.0312 16.5 31.0312Z" fill="#00AAA6"/>
<path d="M25 17H8V16H25V17Z" fill="white"/>
</svg>
