<svg width="31" height="31" viewBox="0 0 31 31" fill="none" xmlns="http://www.w3.org/2000/svg">
<path fill-rule="evenodd" clip-rule="evenodd" d="M15.5 15C15.7757 15 16 15.2243 16 15.5C16 15.7757 15.7764 16 15.5 16C15.2236 16 15 15.7757 15 15.5C15 15.2243 15.2243 15 15.5 15Z" fill="#00AAA6"/>
<path d="M15.5 31C6.95205 31 0 24.0465 0 15.5C0 6.95347 6.95205 0 15.5 0C24.048 0 31 6.95347 31 15.5C31 24.0465 24.048 31 15.5 31ZM15.5 0.96875C7.49859 0.96875 0.98378 7.49167 0.98378 15.5C0.98378 23.5083 7.49859 30.0313 15.5 30.0313C23.5014 30.0313 30.0162 23.5083 30.0162 15.5C30.0162 7.49167 23.5014 0.96875 15.5 0.96875Z" fill="#00AAA6"/>
<path d="M24 15H7V16H24V15Z" fill="#0EA5A1"/>
<path d="M16 7H15V24H16V7Z" fill="#0EA5A1"/>
</svg>
