<svg width="40" height="40" viewBox="0 0 40 40" fill="none" xmlns="http://www.w3.org/2000/svg">
<path d="M6 35.3847V4.61535C6 2.07087 8.09388 0 10.6667 0H29.3333C31.9074 0 34 2.07087 34 4.61535V35.3847C34 37.9291 31.9074 40 29.3333 40H10.6667C8.09388 40 6 37.9291 6 35.3847ZM30.8885 35.3847V4.61535C30.8885 3.76554 30.1926 3.0773 29.3333 3.0773H10.6667C9.8074 3.0773 9.11152 3.76554 9.11152 4.61535V35.3847C9.11152 36.2345 9.8074 36.9227 10.6667 36.9227H29.3333C30.1926 36.9227 30.8885 36.2345 30.8885 35.3847ZM24.6667 32.3086C24.6667 31.46 25.3638 30.7706 26.2218 30.7706C27.0798 30.7706 27.7769 31.46 27.7769 32.3086C27.7769 33.1571 27.0798 33.8466 26.2218 33.8466C25.3638 33.8466 24.6667 33.1571 24.6667 32.3086ZM12.7418 32.3074C12.7418 31.4575 13.4377 30.7693 14.297 30.7693H19.4824C20.3417 30.7693 21.0376 31.4575 21.0376 32.3074C21.0376 33.1572 20.3417 33.8454 19.4824 33.8454H14.297C13.4377 33.8454 12.7418 33.1572 12.7418 32.3074ZM12.2218 26.154C12.2218 25.3054 12.9189 24.6159 13.7769 24.6159C14.6349 24.6159 15.3321 25.3054 15.3321 26.154C15.3321 27.0025 14.6349 27.692 13.7769 27.692C12.9189 27.692 12.2218 27.0025 12.2218 26.154ZM18.4448 26.154C18.4448 25.3054 19.142 24.6159 20 24.6159C20.858 24.6159 21.5551 25.3054 21.5551 26.154C21.5551 27.0025 20.858 27.692 20 27.692C19.142 27.692 18.4448 27.0025 18.4448 26.154ZM24.6667 26.154C24.6667 25.3054 25.3638 24.6159 26.2218 24.6159C27.0798 24.6159 27.7769 25.3054 27.7769 26.154C27.7769 27.0025 27.0798 27.692 26.2218 27.692C25.3638 27.692 24.6667 27.0025 24.6667 26.154ZM12.2218 20.0006C12.2218 19.1521 12.9189 18.4626 13.7769 18.4626C14.6349 18.4626 15.3321 19.1521 15.3321 20.0006C15.3321 20.8492 14.6349 21.5386 13.7769 21.5386C12.9189 21.5386 12.2218 20.8492 12.2218 20.0006ZM18.4448 20.0006C18.4448 19.1521 19.142 18.4626 20 18.4626C20.858 18.4626 21.5551 19.1521 21.5551 20.0006C21.5551 20.8492 20.858 21.5386 20 21.5386C19.142 21.5386 18.4448 20.8492 18.4448 20.0006ZM24.6667 20.0006C24.6667 19.1521 25.3638 18.4626 26.2218 18.4626C27.0798 18.4626 27.7769 19.1521 27.7769 20.0006C27.7769 20.8492 27.0798 21.5386 26.2218 21.5386C25.3638 21.5386 24.6667 20.8492 24.6667 20.0006ZM12.223 12.308V9.23062C12.223 7.53347 13.6173 6.1546 15.3333 6.1546L24.6118 6.10649C26.3328 6.10649 27.7296 7.4866 27.7296 9.18251V12.2599C27.7296 13.9829 26.3565 15.3853 24.6679 15.3853H15.3333C13.6173 15.3853 12.223 14.0039 12.223 12.308ZM24.6679 12.308L24.618 12.2599V9.18251L15.3408 9.23062L15.3333 12.308H24.6679Z" fill="#61337C"/>
</svg>
