<svg width="40" height="40" viewBox="0 0 40 40" fill="none" xmlns="http://www.w3.org/2000/svg">
<path fill-rule="evenodd" clip-rule="evenodd" d="M2 33.6101V8.74323C2 6.32306 3.98327 4.35336 6.42012 4.35336H9.95433V3.45116C9.95433 2.64991 10.6087 2 11.4167 2C12.2234 2 12.8778 2.64991 12.8778 3.45116V4.35336H27.1198V3.45116C27.1198 2.64991 27.7742 2 28.5821 2C29.3889 2 30.0433 2.64991 30.0433 3.45116V4.35336H33.5799C36.0179 4.35336 38 6.32306 38 8.74323V33.6101C38 36.0303 36.0179 38 33.5799 38H6.42012C3.98327 38 2 36.0303 2 33.6101ZM35.0529 33.6101V15.7926H4.94714V33.6101C4.94714 34.4184 5.60626 35.073 6.42012 35.073H33.5799C34.3937 35.073 35.0529 34.4184 35.0529 33.6101ZM7.3899 31.9384V29.0361H10.3134V31.9384H7.3899ZM12.7054 31.9384V29.0361H15.6289V31.9384H12.7054ZM18.0209 31.9384V29.0361H20.9444V31.9384H18.0209ZM7.3899 26.6593V23.757H10.3134V26.6593H7.3899ZM12.7054 26.6593V23.757H15.6289V26.6593H12.7054ZM18.0209 26.6593V23.757H20.9444V26.6593H18.0209ZM23.3364 26.6593V23.757H26.2599V26.6593H23.3364ZM28.6518 26.6593V23.757H31.5753V26.6593H28.6518ZM12.7054 21.3802V18.4779H15.6289V21.3802H12.7054ZM18.0209 21.3802V18.4779H20.9444V21.3802H18.0209ZM23.3364 21.3802V18.4779H26.2599V21.3802H23.3364ZM28.6518 21.3802V18.4779H31.5753V21.3802H28.6518ZM35.0529 12.8656V8.74323C35.0529 7.93494 34.3937 7.28032 33.5799 7.28032H30.0433V8.73027C30.0433 9.5327 29.3889 10.1827 28.5821 10.1827C27.7742 10.1827 27.1198 9.5327 27.1198 8.73027V7.28032H12.8778V8.73027C12.8778 9.5327 12.2234 10.1827 11.4167 10.1827C10.6087 10.1827 9.95433 9.5327 9.95433 8.73027V7.28032H6.42012C5.60626 7.28032 4.94714 7.93494 4.94714 8.74323V12.8656H35.0529Z" fill="#61337C"/>
</svg>
