<svg width="64" height="64" viewBox="0 0 64 64" fill="none" xmlns="http://www.w3.org/2000/svg">
<path d="M3.8147e-06 32C3.8147e-06 14.3269 14.3269 3.8147e-06 32 3.8147e-06C49.6731 3.8147e-06 64 14.3269 64 32C64 49.6731 49.6731 64 32 64C14.3269 64 3.8147e-06 49.6731 3.8147e-06 32Z" fill="#0D5552"/>
<path d="M13 46V24.475L13.0737 24.3271L16.0944 18.4864L16.3451 18H19.7183L19.9704 18.4877L20.4732 19.4605H43.5242L44.0283 18.4864L44.2776 18H47.6536L47.9029 18.4864L50.9236 24.3284L51 24.475V46H45.7886L45.0338 44.5382H18.9649L18.21 46H13ZM17.0999 44.2956L17.604 43.319L17.8534 42.8352H46.1426L46.3946 43.3203L46.8987 44.2956H49.2383V25.5464H46.8987L46.3946 26.5231L46.1426 27.0082H17.8547L17.604 26.5244L17.0999 25.5464H14.7617V44.2956H17.0999ZM22.0592 40.1554V29.6866H23.8196V40.1554H22.0592ZM28.0992 40.1554V29.6866H29.8595V40.1554H28.0992ZM34.1391 40.1554V29.6866H35.9008V40.1554H34.1391ZM40.1791 40.1554V29.6866H41.9408V40.1554H40.1791ZM45.0351 25.3064L45.5393 24.3271L45.7873 23.8446H48.6819L46.5435 19.7044H45.3878L44.8863 20.6797L44.6343 21.1636H19.3644L19.1123 20.681L18.6109 19.7044H17.4552L15.3154 23.8446H18.21L18.4594 24.3271L18.9622 25.3064H45.0351Z" fill="#24C5C1"/>
</svg>
