<svg width="37" height="37" viewBox="0 0 37 37" fill="none" xmlns="http://www.w3.org/2000/svg">
<path d="M36.0239 24.0239H0.0239258V12.0239H36.0239V24.0239Z" fill="white"/>
<path d="M36.0253 36.0226H0.0239258V24.0252H36.0253V36.0226Z" fill="black"/>
<path d="M36.0253 12.0239H0.0239258V0.0225925H36.0253V12.0239Z" fill="#CE1126"/>
<path fill-rule="evenodd" clip-rule="evenodd" d="M13.0667 15.8254V20.6373C13.0667 21.1613 13.492 21.5867 14.0146 21.5867L19.776 15.8254C19.776 15.3027 19.3506 14.8774 18.828 14.8774H14.0146C13.492 14.8774 13.0667 15.3027 13.0667 15.8254Z" fill="#C09300"/>
<path fill-rule="evenodd" clip-rule="evenodd" d="M22.9825 15.8254V20.6373C22.9825 21.1613 22.5572 21.5867 22.0345 21.5867L16.2732 15.8254C16.2732 15.3027 16.6985 14.8774 17.2212 14.8774H22.0345C22.5572 14.8774 22.9825 15.3027 22.9825 15.8254Z" fill="#C09300"/>
<path fill-rule="evenodd" clip-rule="evenodd" d="M17.7413 20.1347L15.7479 22.128C15.5319 22.344 15.5319 22.6973 15.7479 22.9133H20.5213C20.7386 22.6973 20.7386 22.344 20.5213 22.128L18.5279 20.1347C18.3106 19.9174 17.9586 19.9174 17.7413 20.1347Z" fill="#C09300"/>
<path d="M18.0912 13.1333C18.8987 13.1333 19.5532 13.9142 19.5532 14.8773C19.5532 15.8405 18.8987 16.6213 18.0912 16.6213C17.2838 16.6213 16.6292 15.8405 16.6292 14.8773C16.6292 13.9142 17.2838 13.1333 18.0912 13.1333Z" fill="#C09300"/>
</svg>
