<svg width="19" height="22" viewBox="0 0 19 22" fill="none" xmlns="http://www.w3.org/2000/svg">
<path d="M17.512 4.92273L14.7027 2.1134C14.0893 1.5014 12.8813 1.00004 12.016 1.00004H2.57332C1.70799 1.00004 1 1.70803 1 2.57336V19.5694C1 20.4347 1.70799 21.1427 2.57332 21.1427H17.052C17.9173 21.1427 18.6253 20.4347 18.6253 19.5694V7.60933C18.6253 6.744 18.1253 5.53606 17.512 4.92273Z" fill="#1EA19E" stroke="#1EA19E" stroke-width="0.5" stroke-miterlimit="10"/>
<path d="M17.3668 19.5694C17.3668 19.7388 17.2215 19.884 17.0521 19.884H2.57345C2.40278 19.884 2.25879 19.7388 2.25879 19.5694V2.5734C2.25879 2.40274 2.40278 2.25871 2.57345 2.25871H12.0161C12.1094 2.25871 12.2161 2.26941 12.3308 2.29207V7.29606H17.3308C17.3548 7.41073 17.3668 7.51739 17.3668 7.61206V19.5694Z" fill="white" stroke="#1EA19E" stroke-width="0.5" stroke-miterlimit="10"/>
<path d="M16.0483 13.464C15.9656 13.5147 15.7296 13.5466 15.5803 13.5466C15.0923 13.5466 14.4949 13.3213 13.6496 12.96C13.9749 12.936 14.2709 12.924 14.5389 12.924C15.0256 12.924 15.167 12.924 15.647 13.0466C16.123 13.164 16.1283 13.412 16.0483 13.464ZM7.58561 13.5387C7.77494 13.208 7.9683 12.8573 8.1643 12.484C8.6443 11.5746 8.95093 10.8586 9.17626 10.272C9.62826 11.0946 10.191 11.792 10.8483 12.3507C10.931 12.4213 11.0176 12.488 11.111 12.5587C9.76962 12.8253 8.60827 13.148 7.58561 13.5387ZM9.1523 4.92529C9.41896 4.92529 9.57226 5.5973 9.58426 6.23063C9.59626 6.85996 9.45096 7.30133 9.26696 7.632C9.11363 7.14266 9.04162 6.38001 9.04162 5.88135C9.04162 5.88135 9.02963 4.92529 9.1523 4.92529ZM3.90429 17.012C4.05762 16.5986 4.65494 15.78 5.54028 15.0533C5.59628 15.0093 5.73363 14.88 5.85896 14.7613C4.93496 16.2413 4.31229 16.8266 3.90429 17.012ZM16.3043 12.5946C16.0363 12.3306 15.4389 12.192 14.5349 12.18C13.9203 12.1733 13.1843 12.228 12.4056 12.3346C12.059 12.1333 11.7016 11.9173 11.4176 11.6533C10.6629 10.9453 10.0336 9.96669 9.63895 8.88802C9.66295 8.78535 9.68694 8.69866 9.70694 8.60799C9.70694 8.60799 10.1323 6.18935 10.0176 5.37069C10.0016 5.25602 9.99363 5.22534 9.96297 5.13867L9.92696 5.03996C9.81362 4.77329 9.5843 4.49067 9.22696 4.50667L9.01896 4.49862H9.01497C8.6163 4.49862 8.29095 4.70265 8.20829 5.00399C7.94829 5.95999 8.21626 7.38533 8.69893 9.22933L8.5736 9.53328C8.22827 10.3746 7.79361 11.224 7.41361 11.972L7.36295 12.0706C6.96028 12.8573 6.59494 13.5267 6.26428 14.0933L5.92162 14.2747C5.89762 14.2893 5.31229 14.596 5.17362 14.6786C4.01095 15.3746 3.23493 16.1666 3.10693 16.796C3.06693 16.9933 3.09761 17.248 3.30427 17.3693L3.63496 17.5347C3.77763 17.6067 3.93226 17.6414 4.08426 17.6414C4.91493 17.6414 5.87897 16.6106 7.2043 14.2933C8.73897 13.7933 10.4856 13.3774 12.0163 13.148C13.1803 13.8054 14.6123 14.2627 15.5176 14.2627C15.6789 14.2627 15.8163 14.2467 15.9309 14.2147C16.1043 14.172 16.2496 14.0733 16.3403 13.9347C16.5123 13.672 16.5523 13.3106 16.5003 12.936C16.4896 12.8253 16.3989 12.688 16.3043 12.5946Z" fill="#1EA19E" stroke="#1EA19E" stroke-width="0.5" stroke-miterlimit="10"/>
<path d="M16.6228 5.81063C16.6855 5.87329 16.7442 5.948 16.8042 6.03467H13.5908V2.81999C13.6762 2.87999 13.7509 2.94135 13.8135 3.00269L16.6228 5.81063Z" fill="white" stroke="#1EA19E" stroke-width="0.5" stroke-miterlimit="10"/>
</svg>
