<svg width="24" height="24" viewBox="0 0 24 24" fill="none" xmlns="http://www.w3.org/2000/svg">
<path fill-rule="evenodd" clip-rule="evenodd" d="M5 20V4C5 3.44772 5.44772 3 6 3H12H13.5V9C13.5 9.82843 14.1716 10.5 15 10.5H19V12V20C19 20.5523 18.5523 21 18 21H6C5.44772 21 5 20.5523 5 20ZM20 9.5V10.5V12V20C20 21.1046 19.1046 22 18 22H6C4.89543 22 4 21.1046 4 20V4C4 2.89543 4.89543 2 6 2H12H14.5481C15.1818 2 15.778 2.30033 16.1552 2.80954L19.6071 7.4696C19.8623 7.81406 20 8.23139 20 8.66006V9.5ZM19 9.5H15C14.7239 9.5 14.5 9.27614 14.5 9V3H14.5481C14.865 3 15.1631 3.15016 15.3517 3.40477L18.8036 8.06483C18.9311 8.23706 19 8.44573 19 8.66006V9.5Z" fill="#24C5C1"/>
</svg>
