<svg width="90" height="98" viewBox="0 0 90 98" fill="none" xmlns="http://www.w3.org/2000/svg">
<path d="M88.7983 16.7604L39.2123 0.0779317C38.7074 -0.0927508 38.1649 0.0194125 37.7435 0.390034C37.322 0.760655 37.0758 1.33609 37.0758 1.95054V17.2972L1.11002 33.5116C0.450705 33.7847 0.00416617 34.5113 0 35.3305V96.0494C0 97.1271 0.746942 98 1.66914 98H88.3309C89.2531 98 90 97.1271 90 96.0494V18.633C89.9958 17.7699 89.5077 17.0091 88.7983 16.7604ZM3.38005 47.3614H24.9117V55.164H3.38005V47.3614ZM3.38005 71.3683H24.9117V79.1709H3.38005V71.3683ZM3.38005 83.0722H26.5814C27.5035 83.0624 28.2463 82.1944 28.2505 81.1215V69.4177C28.2505 68.34 27.5035 67.467 26.5814 67.467H3.38005V59.0257H26.5814C27.5035 59.0208 28.2463 58.1479 28.2505 57.075V45.3712C28.2505 44.2935 27.5035 43.4206 26.5814 43.4206H3.38005V36.6714L37.0758 21.4808V94.0982H3.38005V83.0722ZM56.2584 94.0981V71.407H70.8261V94.0981H56.2584ZM86.6576 94.0981H74.1644V69.3883C74.1644 68.3106 73.4174 67.4377 72.4952 67.4377H54.5892C53.667 67.4377 52.9201 68.3106 52.9201 69.3883V94.0981H40.4141V4.53975L86.6618 20.1449L86.6576 94.0981ZM49.1268 39.6213H59.3878C60.31 39.6213 61.057 38.7484 61.057 37.6706V25.6937C61.057 24.6159 60.31 23.743 59.3878 23.743H49.1268C48.2046 23.743 47.4576 24.6159 47.4576 25.6937V37.6706C47.4576 38.7484 48.2046 39.6213 49.1268 39.6213ZM50.7959 27.6443H57.7187V35.72H50.7959V27.6443ZM67.6999 39.6213H77.9484C78.8706 39.6213 79.6176 38.7484 79.6176 37.6706V25.6937C79.6176 24.6159 78.8706 23.743 77.9484 23.743H67.6999C66.7777 23.743 66.0307 24.6159 66.0307 25.6937V37.6706C66.0307 38.7484 66.7777 39.6213 67.6999 39.6213ZM69.369 27.6443H76.2793V35.72H69.369V27.6443ZM49.1268 61.3264H59.3878C60.31 61.3264 61.057 60.4534 61.057 59.3757V47.3841C61.0486 46.3113 60.3059 45.4432 59.3878 45.4335H49.1268C48.2046 45.4335 47.4576 46.3064 47.4576 47.3841V59.4001C47.4701 60.468 48.2129 61.3264 49.1268 61.3264ZM50.7959 49.3348H57.7187V57.4251H50.7959V49.3348ZM67.6999 61.3264H77.9484C78.8706 61.3264 79.6176 60.4534 79.6176 59.3757V47.3841C79.6176 46.3064 78.8706 45.4335 77.9484 45.4335H67.6999C66.7777 45.4335 66.0307 46.3064 66.0307 47.3841V59.4001C66.0432 60.468 66.786 61.3264 67.6999 61.3264ZM69.369 49.3348H76.2793V57.4251H69.369V49.3348Z" fill="#24C5C1"/>
</svg>
