<svg width="24" height="24" viewBox="0 0 24 24" fill="none" xmlns="http://www.w3.org/2000/svg">
<path fill-rule="evenodd" clip-rule="evenodd" d="M3.34375 13.128C3.34375 8.60934 6.82109 4.89873 11.2438 4.53206L11.2464 4.53475L9.73975 3.02539L11.8611 0.904053L16.9491 5.99601L11.8611 11.0841L9.73975 8.96273L11.1398 7.56274C8.42642 7.96541 6.34375 10.3053 6.34375 13.128C6.34375 16.2333 8.86374 18.7534 11.9691 18.7534C15.0731 18.7534 17.5944 16.2333 17.5944 13.128C17.5944 11.552 16.9464 10.1268 15.8984 9.10408L17.9957 6.95874C19.5957 8.52274 20.5944 10.7107 20.5944 13.128C20.5944 17.8907 16.7304 21.7534 11.9691 21.7534C7.20641 21.7534 3.34375 17.8907 3.34375 13.128Z" fill="#61337C"/>
</svg>
