<svg width="24" height="24" viewBox="0 0 24 24" fill="none" xmlns="http://www.w3.org/2000/svg">
<path fill-rule="evenodd" clip-rule="evenodd" d="M2.5 13.9827C2.5 9.39467 5.75733 5.56261 10.0853 4.67594L10.5 4.6346V3.51733H8.65999V0.517334H15.3413V3.51733H13.4987V4.6346L13.9133 4.67594C18.2413 5.56261 21.5 9.39467 21.5 13.9827C21.5 19.228 17.244 23.4827 12 23.4827C6.75467 23.4827 2.5 19.228 2.5 13.9827ZM18.5 13.9827C18.5 10.396 15.5867 7.48267 12 7.48267C8.412 7.48267 5.5 10.396 5.5 13.9827C5.5 17.5707 8.412 20.4827 12 20.4827C15.5867 20.4827 18.5 17.5707 18.5 13.9827ZM13.7787 17.884L10.5 14.604V8.552H13.5V13.3626L15.9 15.7626L13.7787 17.884Z" fill="#61337C"/>
</svg>
