<svg width="24" height="24" viewBox="0 0 24 24" fill="none" xmlns="http://www.w3.org/2000/svg">
<path fill-rule="evenodd" clip-rule="evenodd" d="M4.3985 18.7306L2.85583 20.2747L2.85449 15.616C2.85449 15.616 2.85449 15.6133 2.85449 15.6106H2.85583V14.5773H8.55316L6.55849 16.5719L6.5505 16.58C7.44916 17.956 8.8545 18.9693 10.4998 19.3586V19.3373V13.7013H6.71316V10.7013H10.4998V8.83333C9.1265 8.24933 8.16516 6.88927 8.16516 5.30127C8.16516 3.18394 9.88117 1.46663 11.9998 1.46663C14.1172 1.46663 15.8345 3.18394 15.8345 5.30127C15.8345 6.88794 14.8718 8.24795 13.5012 8.83195V10.7013H17.0638V13.7013H13.5012V19.3373V19.3586C15.1452 18.9693 16.5492 17.9546 17.4478 16.5786L17.4412 16.5719L15.4478 14.5773H21.1452V20.2747L19.5998 18.7293C17.8678 21.0387 15.1092 22.532 12.0012 22.532C8.89049 22.532 6.13183 21.0386 4.3985 18.7306ZM12.8345 5.30127C12.8345 4.84127 12.4598 4.46663 11.9998 4.46663C11.5385 4.46663 11.1652 4.84127 11.1652 5.30127C11.1652 5.7626 11.5385 6.13599 11.9998 6.13599C12.4598 6.13599 12.8345 5.7626 12.8345 5.30127Z" fill="#61337C"/>
</svg>
