<svg width="85" height="82" viewBox="0 0 85 82" fill="none" xmlns="http://www.w3.org/2000/svg">
<path d="M84.9845 34.749C84.9745 34.6451 84.9531 34.5426 84.9204 34.4431C84.8847 34.2576 84.8058 34.0823 84.6895 33.9303C84.5733 33.7783 84.4227 33.6537 84.2492 33.5657C84.1586 33.5052 84.0615 33.4545 83.9594 33.4143C83.9336 33.4052 83.9157 33.3854 83.8889 33.3773L46.9549 22.4456C47.7393 21.6907 48.3023 20.7497 48.5867 19.7181C48.8712 18.6864 48.8669 17.6007 48.5744 16.5712C48.282 15.5416 47.7117 14.6047 46.9214 13.8555C46.131 13.1063 45.1488 12.5715 44.0743 12.3052V9.0847C46.1609 9.08234 48.1614 8.28397 49.6368 6.86472C51.1122 5.44547 51.9422 3.52124 51.9447 1.51412C51.9447 1.11255 51.7789 0.727427 51.4837 0.443475C51.1885 0.159523 50.7881 0 50.3706 0H34.6299C34.2124 0 33.8121 0.159523 33.5169 0.443475C33.2217 0.727427 33.0558 1.11255 33.0558 1.51412C33.0583 3.52124 33.8883 5.44547 35.3637 6.86472C36.8392 8.28397 38.8396 9.08234 40.9262 9.0847V13.6271C40.9262 14.0286 41.092 14.4137 41.3872 14.6977C41.6824 14.9816 42.0828 15.1412 42.5003 15.1412C43.1229 15.1412 43.7316 15.3188 44.2493 15.6515C44.767 15.9843 45.1705 16.4572 45.4088 17.0106C45.647 17.5639 45.7094 18.1728 45.5879 18.7602C45.4664 19.3476 45.1666 19.8872 44.7263 20.3107C44.2861 20.7342 43.7251 21.0226 43.1144 21.1395C42.5038 21.2563 41.8708 21.1963 41.2955 20.9671C40.7203 20.7379 40.2286 20.3498 39.8827 19.8518C39.5368 19.3538 39.3521 18.7683 39.3521 18.1694C39.3521 17.7678 39.1863 17.3827 38.8911 17.0988C38.5959 16.8148 38.1955 16.6553 37.778 16.6553C37.3606 16.6553 36.9602 16.8148 36.665 17.0988C36.3698 17.3827 36.204 17.7678 36.204 18.1694C36.2035 18.9637 36.3659 19.7502 36.6819 20.484C36.9979 21.2178 37.4613 21.8844 38.0456 22.4456L1.11129 33.3775C1.08454 33.3855 1.06659 33.4054 1.04078 33.4144C0.938736 33.4546 0.841564 33.5054 0.75099 33.5659C0.668999 33.6093 0.591241 33.6597 0.518656 33.7165C0.289834 33.903 0.134844 34.1597 0.079805 34.4433C0.0471324 34.5427 0.0256545 34.6453 0.0157403 34.7491C0.0143237 34.7756 0 34.7979 0 34.8248V80.2482C0 80.6498 0.165839 81.0349 0.461035 81.3189C0.75623 81.6028 1.1566 81.7623 1.57407 81.7623H83.4261C83.8436 81.7623 84.244 81.6028 84.5392 81.3189C84.8344 81.0349 85.0002 80.6498 85.0002 80.2482V34.8247C85.0002 34.7977 84.9857 34.7755 84.9845 34.749ZM36.4738 3.02823H48.5268C48.2002 3.91327 47.597 4.67944 46.7998 5.22162C46.0027 5.7638 45.0506 6.05542 44.0743 6.05647H40.9262C39.9499 6.05542 38.9978 5.7638 38.2007 5.22162C37.4035 4.67944 36.8003 3.91327 36.4738 3.02823ZM72.9576 33.3106H12.0429L42.5003 24.2954L72.9576 33.3106ZM81.8521 78.7341H3.14846V36.3388H81.8521V78.7341Z" fill="#24C5C1"/>
<path d="M9.44517 74.1918C9.86264 74.1918 10.263 74.0323 10.5582 73.7483C10.8534 73.4644 11.0192 73.0793 11.0192 72.6777V42.3953C11.0192 41.9938 10.8534 41.6087 10.5582 41.3247C10.263 41.0407 9.86264 40.8812 9.44517 40.8812C9.0277 40.8812 8.62732 41.0407 8.33213 41.3247C8.03693 41.6087 7.87109 41.9938 7.87109 42.3953V72.6777C7.87109 73.0793 8.03693 73.4644 8.33213 73.7483C8.62732 74.0323 9.0277 74.1918 9.44517 74.1918Z" fill="#24C5C1"/>
<path d="M18.8895 74.1918C19.307 74.1918 19.7073 74.0323 20.0025 73.7483C20.2977 73.4644 20.4636 73.0793 20.4636 72.6777V42.3953C20.4636 41.9938 20.2977 41.6087 20.0025 41.3247C19.7073 41.0407 19.307 40.8812 18.8895 40.8812C18.472 40.8812 18.0717 41.0407 17.7765 41.3247C17.4813 41.6087 17.3154 41.9938 17.3154 42.3953V72.6777C17.3154 73.0793 17.4813 73.4644 17.7765 73.7483C18.0717 74.0323 18.472 74.1918 18.8895 74.1918Z" fill="#24C5C1"/>
<path d="M28.3338 74.1918C28.7513 74.1918 29.1517 74.0323 29.4469 73.7483C29.7421 73.4644 29.9079 73.0793 29.9079 72.6777V42.3953C29.9079 41.9938 29.7421 41.6087 29.4469 41.3247C29.1517 41.0407 28.7513 40.8812 28.3338 40.8812C27.9164 40.8812 27.516 41.0407 27.2208 41.3247C26.9256 41.6087 26.7598 41.9938 26.7598 42.3953V72.6777C26.7598 73.0793 26.9256 73.4644 27.2208 73.7483C27.516 74.0323 27.9164 74.1918 28.3338 74.1918Z" fill="#24C5C1"/>
<path d="M37.7782 74.1918C38.1956 74.1918 38.596 74.0323 38.8912 73.7483C39.1864 73.4644 39.3522 73.0793 39.3522 72.6777V42.3953C39.3522 41.9938 39.1864 41.6087 38.8912 41.3247C38.596 41.0407 38.1956 40.8812 37.7782 40.8812C37.3607 40.8812 36.9603 41.0407 36.6651 41.3247C36.3699 41.6087 36.2041 41.9938 36.2041 42.3953V72.6777C36.2041 73.0793 36.3699 73.4644 36.6651 73.7483C36.9603 74.0323 37.3607 74.1918 37.7782 74.1918Z" fill="#24C5C1"/>
<path d="M47.2225 74.1918C47.64 74.1918 48.0404 74.0323 48.3355 73.7483C48.6307 73.4644 48.7966 73.0793 48.7966 72.6777V42.3953C48.7966 41.9938 48.6307 41.6087 48.3355 41.3247C48.0404 41.0407 47.64 40.8812 47.2225 40.8812C46.805 40.8812 46.4047 41.0407 46.1095 41.3247C45.8143 41.6087 45.6484 41.9938 45.6484 42.3953V72.6777C45.6484 73.0793 45.8143 73.4644 46.1095 73.7483C46.4047 74.0323 46.805 74.1918 47.2225 74.1918Z" fill="#24C5C1"/>
<path d="M56.6668 74.1918C57.0843 74.1918 57.4847 74.0323 57.7799 73.7483C58.0751 73.4644 58.2409 73.0793 58.2409 72.6777V42.3953C58.2409 41.9938 58.0751 41.6087 57.7799 41.3247C57.4847 41.0407 57.0843 40.8812 56.6668 40.8812C56.2494 40.8812 55.849 41.0407 55.5538 41.3247C55.2586 41.6087 55.0928 41.9938 55.0928 42.3953V72.6777C55.0928 73.0793 55.2586 73.4644 55.5538 73.7483C55.849 74.0323 56.2494 74.1918 56.6668 74.1918Z" fill="#24C5C1"/>
<path d="M66.1112 74.1918C66.5287 74.1918 66.929 74.0323 67.2242 73.7483C67.5194 73.4644 67.6853 73.0793 67.6853 72.6777V42.3953C67.6853 41.9938 67.5194 41.6087 67.2242 41.3247C66.929 41.0407 66.5287 40.8812 66.1112 40.8812C65.6937 40.8812 65.2933 41.0407 64.9981 41.3247C64.7029 41.6087 64.5371 41.9938 64.5371 42.3953V72.6777C64.5371 73.0793 64.7029 73.4644 64.9981 73.7483C65.2933 74.0323 65.6937 74.1918 66.1112 74.1918Z" fill="#24C5C1"/>
<path d="M75.5555 74.1918C75.973 74.1918 76.3734 74.0323 76.6686 73.7483C76.9638 73.4644 77.1296 73.0793 77.1296 72.6777V42.3953C77.1296 41.9938 76.9638 41.6087 76.6686 41.3247C76.3734 41.0407 75.973 40.8812 75.5555 40.8812C75.138 40.8812 74.7377 41.0407 74.4425 41.3247C74.1473 41.6087 73.9814 41.9938 73.9814 42.3953V72.6777C73.9814 73.0793 74.1473 73.4644 74.4425 73.7483C74.7377 74.0323 75.138 74.1918 75.5555 74.1918Z" fill="#24C5C1"/>
</svg>
