<svg width="24" height="24" viewBox="0 0 24 24" fill="none" xmlns="http://www.w3.org/2000/svg">
<path fill-rule="evenodd" clip-rule="evenodd" d="M21.1417 0H2.85832C1.28131 0 0 1.28485 0 2.86061V21.1394C0 22.7152 1.28131 24 2.85832 24H21.1417C22.7187 24 24 22.7152 24 21.1394V2.86061C24 1.28485 22.7187 0 21.1417 0ZM7.41684 9.13939V20H3.99179V9.13939H7.41684ZM3.99179 5.98788C3.99179 5.18788 4.68172 4.58182 5.71663 4.58182C6.75154 4.58182 7.3922 5.18788 7.44148 5.98788C7.44148 6.78788 6.80082 7.44242 5.71663 7.44242C4.68172 7.41818 3.99179 6.78788 3.99179 5.98788ZM19.9836 20H16.5585C16.5585 20 16.5585 14.7152 16.5585 14.2788C16.5585 13.1394 15.9918 12 14.5626 11.9758H14.5133C13.1335 11.9758 12.5667 13.1394 12.5667 14.2788C12.5667 14.7879 12.5667 20 12.5667 20H9.14168V9.13939H12.5667V10.5939C12.5667 10.5939 13.6756 9.13939 15.8932 9.13939C18.1602 9.13939 20.0082 10.6909 20.0082 13.8667V20H19.9836Z" fill="#1EA19E"/>
</svg>
