<svg width="162" height="44" viewBox="0 0 162 44" fill="none" xmlns="http://www.w3.org/2000/svg">
<path fill-rule="evenodd" clip-rule="evenodd" d="M21.3179 41.2697L26.3608 44L43.5897 38.7817L43.4794 35.0839L32.4598 24.6379L32.4146 30.1854L17.743 34.6341L22.7885 37.3671L35.8221 33.4175L38.592 36.0287L21.3166 41.2644L16.2724 38.5368L7.29595 41.2537L12.3401 43.9866L21.3179 41.2697ZM36.3615 18.2152L36.1862 12.4481L23.0609 0L19.9749 1.92193L16.4983 16.7951L11.6374 19.8318L8.51415 33.1793L4.88478 34.2888L9.02294 16.5984L13.8905 13.563L16.0439 4.37246L11.1697 7.40648L9.01763 16.5984L4.14883 19.6338L0 37.3564L3.20692 39.04L17.743 34.6341L12.9964 31.8223L16.5062 16.8112L21.2861 14.0729L32.4438 24.6513L32.2711 18.8816L22.3608 9.48232L23.2203 5.76163L36.3589 18.2165L36.5342 23.9821L43.3599 30.4558L43.1872 24.6875L36.3615 18.2152Z" fill="#61337C"/>
<path d="M141.122 20.7059L135.447 20.7006C134.785 20.6618 134.278 20.1358 134.278 19.3836C134.278 18.4695 135.04 18.0961 135.48 18.0961H142.396L144.417 14.7435H134.68C132.511 14.7435 130.452 16.7671 130.452 19.2605C130.452 22.8098 133.519 23.91 134.756 23.91H140.344C141.308 23.91 141.552 24.7277 141.552 25.0463C141.552 25.7422 141.038 26.2373 140.454 26.2373H132.265L130.354 29.4106H141.003C144.143 29.4106 145.228 26.5666 145.228 25.2671C145.228 22.7683 143.491 20.7059 141.122 20.7059Z" fill="#61337C"/>
<path d="M81.3346 29.1117H77.8806L74.7122 21.9515L74.7082 29.3325H70.8145V14.6654H74.9367L79.7099 25.296L84.499 14.6654H88.5017L88.4964 29.3325H84.4924L84.499 21.9515L81.3346 29.1117Z" fill="#61337C"/>
<path d="M64.4806 29.3325H69.125L62.2223 14.6654H57.7759L50.8691 29.3325H55.4563L56.1817 27.6998C56.9761 27.6998 57.6377 27.6985 59.5773 27.6985L61.5314 24.4369H57.6297L59.9413 19.2333L64.4806 29.3325Z" fill="#61337C"/>
<path d="M161.999 14.7394H146.889L144.934 18.005H151.361L151.355 29.4092H155.371L155.377 18.005H160.042L161.999 14.7394Z" fill="#61337C"/>
<path d="M121.94 14.7423H106.83L104.873 18.0079H111.302L111.296 29.4121H115.311L115.316 18.0079H119.983L121.94 14.7423Z" fill="#61337C"/>
<path d="M91.1172 29.3325C95.8691 29.3325 97.6479 29.3272 102.401 29.3272L104.355 26.067H95.1212V23.7101H98.9365L100.891 20.4499L95.1212 20.4445V17.9284H102.401L104.355 14.6681H91.1172V29.3325Z" fill="#61337C"/>
<path d="M128.031 14.7411H123.994V29.4082H128.031V14.7411Z" fill="#61337C"/>
</svg>
