<svg width="24" height="24" viewBox="0 0 24 24" fill="none" xmlns="http://www.w3.org/2000/svg">
<path d="M12.0002 1.92859C14.2167 1.92859 16.3423 2.80907 17.9096 4.37634C19.4769 5.94361 20.3574 8.06928 20.3574 10.2857C20.3574 13.8172 17.8759 17.6657 12.9774 21.8726C12.705 22.1066 12.3577 22.2351 11.9986 22.2348C11.6395 22.2345 11.2925 22.1053 11.0205 21.8709L10.6965 21.5897C6.01478 17.4926 3.64307 13.7383 3.64307 10.2857C3.64307 8.06928 4.52355 5.94361 6.09082 4.37634C7.65808 2.80907 9.78376 1.92859 12.0002 1.92859ZM12.0002 3.2143C10.1247 3.2143 8.3261 3.95933 6.99995 5.28548C5.6738 6.61163 4.92878 8.41027 4.92878 10.2857C4.92878 13.2874 7.11278 16.746 11.5408 20.6203L11.8605 20.8972C11.8994 20.9306 11.9489 20.949 12.0002 20.949C12.0515 20.949 12.101 20.9306 12.1399 20.8972C16.7822 16.9097 19.0716 13.3586 19.0716 10.2857C19.0716 9.3571 18.8887 8.43756 18.5334 7.57961C18.178 6.72167 17.6571 5.94212 17.0005 5.28548C16.3438 4.62883 15.5643 4.10796 14.7063 3.75258C13.8484 3.39721 12.9288 3.2143 12.0002 3.2143ZM12.0002 7.07145C12.8527 7.07145 13.6703 7.41009 14.2731 8.01289C14.8758 8.61568 15.2145 9.43325 15.2145 10.2857C15.2145 11.1382 14.8758 11.9558 14.2731 12.5586C13.6703 13.1614 12.8527 13.5 12.0002 13.5C11.1477 13.5 10.3302 13.1614 9.72737 12.5586C9.12457 11.9558 8.78592 11.1382 8.78592 10.2857C8.78592 9.43325 9.12457 8.61568 9.72737 8.01289C10.3302 7.41009 11.1477 7.07145 12.0002 7.07145ZM12.0002 8.35716C11.4887 8.35716 10.9982 8.56035 10.6365 8.92203C10.2748 9.2837 10.0716 9.77424 10.0716 10.2857C10.0716 10.7972 10.2748 11.2878 10.6365 11.6494C10.9982 12.0111 11.4887 12.2143 12.0002 12.2143C12.5117 12.2143 13.0022 12.0111 13.3639 11.6494C13.7256 11.2878 13.9288 10.7972 13.9288 10.2857C13.9288 9.77424 13.7256 9.2837 13.3639 8.92203C13.0022 8.56035 12.5117 8.35716 12.0002 8.35716Z" fill="#24C5C1"/>
</svg>
