<svg width="110" height="110" viewBox="0 0 110 110" fill="none" xmlns="http://www.w3.org/2000/svg">
<path fill-rule="evenodd" clip-rule="evenodd" d="M104.07 40.4298L76.3712 12.4856C75.7281 11.8381 74.6938 11.8381 74.0494 12.4856L46.3506 40.4298C45.7571 41.0325 45.4219 41.8484 45.4219 42.6959C45.4219 43.5473 45.7597 44.3605 46.3506 44.9606L53.4517 52.126C54.0465 52.726 54.8579 53.0656 55.6966 53.0656H55.7005C56.5392 53.0656 57.3505 52.726 57.9427 52.126L67.0122 42.9748V94.7983C67.0174 95.6458 67.3487 96.459 67.9449 97.0604C68.5397 97.6631 69.351 98 70.191 98H80.2335C81.0722 98 81.8822 97.6631 82.4757 97.0604C83.0705 96.459 83.4084 95.6458 83.4097 94.7983V42.9748L92.4765 52.126C93.0726 52.726 93.8788 53.0656 94.7227 53.0656H94.7253C95.5679 53.0656 96.3767 52.726 96.9676 52.126L104.07 44.9606C104.665 44.3605 105 43.5447 105 42.6959C105 41.8484 104.665 41.0299 104.07 40.4298ZM94.7945 49.7849L82.9284 37.8111C82.4575 37.3386 81.7531 37.1952 81.1401 37.4531C80.5296 37.7097 80.1278 38.3098 80.1278 38.9809L80.2335 94.6917L70.2914 94.7983V38.9809C70.2914 38.3098 69.8936 37.7097 69.2818 37.4531C68.6648 37.1952 67.9618 37.3386 67.4935 37.8111L55.7709 49.7849L48.7402 42.6959L75.2142 15.99L101.753 42.6235L94.7945 49.7849ZM56.5484 57.8793C55.9536 57.274 55.1435 56.9344 54.3009 56.9371C53.4621 56.9371 52.6495 57.2766 52.0573 57.8793L42.9853 67.0265V15.203C42.9853 14.3529 42.6514 13.5423 42.0579 12.9422C41.4604 12.3369 40.653 12.0013 39.8091 12.0013H29.7718C28.9278 12.0013 28.1217 12.3369 27.5256 12.9422C26.9295 13.5423 26.5943 14.3529 26.5917 15.203V67.0265L17.5248 57.8793C16.9274 57.274 16.1187 56.9344 15.2786 56.9371C14.4334 56.9371 13.6273 57.2766 13.0338 57.8793L5.93268 65.0381C5.33657 65.6395 5 66.4554 5 67.3068C5 68.1542 5.33657 68.9714 5.93268 69.5715L33.6327 97.517C34.2719 98.1605 35.3102 98.1605 35.9507 97.517L63.6482 69.5742L63.6494 69.5715C64.2429 68.9714 64.5769 68.1542 64.5769 67.3068C64.5769 66.4554 64.2404 65.6434 63.6482 65.0381L56.5484 57.8793ZM34.7885 94.0127L8.24665 67.3765L15.2056 60.2151L27.0729 72.1903C27.5425 72.6614 28.2469 72.8048 28.8587 72.5495C29.473 72.2916 29.8722 71.6902 29.8722 71.0204L29.7718 15.3109L39.7099 15.203V71.0204C39.7099 71.6902 40.1103 72.2916 40.7221 72.5495C41.3339 72.8048 42.0383 72.6614 42.5092 72.1903L54.2304 60.2151L61.2598 67.3068L34.7885 94.0127Z" fill="#24C5C1"/>
</svg>
