<svg width="110" height="110" viewBox="0 0 110 110" fill="none" xmlns="http://www.w3.org/2000/svg">
<path fill-rule="evenodd" clip-rule="evenodd" d="M91.964 44.1446H81.5222V35.6803C81.5222 34.6682 80.6909 33.842 79.6742 33.842H69.1384V30.0678L80.5042 23.8122C81.2442 23.4432 81.6149 22.5246 81.4282 21.6944C81.2442 20.8682 80.5042 20.316 79.6742 20.316H56.7546V10.8397C56.7546 9.82758 55.9206 9 54.9067 9C53.89 9 53.0587 9.82758 53.0587 10.8397V20.316H30.1391C29.3064 20.316 28.5664 20.8682 28.3824 21.6944C28.1985 22.5246 28.5664 23.3509 29.3064 23.8122L40.6749 30.0678V33.842H30.1391C29.1224 33.842 28.2911 34.6682 28.2911 35.6803V44.1446H17.8493C16.8313 44.1446 16 44.9722 16 45.9829V81.1275V81.3133C16 81.4042 16 81.4965 16.0913 81.5901C16.0913 81.681 16.0913 81.7719 16.184 81.7719C16.184 81.8655 16.2753 81.9564 16.2753 82.05C16.2753 82.1396 16.368 82.2331 16.462 82.2331C16.462 82.2331 16.462 82.324 16.5533 82.324L30.5098 97.3207H17.8493C16.8313 97.3207 16 98.1483 16 99.163C16 100.172 16.8313 101 17.8493 101H92.1507C93.1673 101 94 100.172 94 99.163C94 98.1483 93.1673 97.3207 92.1507 97.3207H79.3049L93.3513 82.4176C93.3513 82.4176 93.3513 82.3254 93.444 82.3254C93.5367 82.2331 93.5367 82.2331 93.6293 82.1409C93.722 82.0513 93.722 81.9577 93.722 81.8655C93.722 81.7759 93.8133 81.6823 93.8133 81.6823C93.8133 81.5901 93.8133 81.4992 93.9073 81.4056V81.2197L93.9087 66.5934V45.9829C93.816 44.9722 93.076 44.1446 91.964 44.1446ZM35.5903 97.3194L23.7625 84.8081C33.835 87.4753 44.3708 88.7642 54.904 88.7642C65.4411 88.7642 75.9783 87.3831 86.0508 84.8081L74.2244 97.3194H35.5903ZM19.6946 47.8225H28.3811V54.4472H19.6946V47.8225ZM69.1384 25.8336V24.0836H72.4664L69.1384 25.8336ZM19.6946 58.1252H28.3811V64.7498H19.6946V58.1252ZM44.3695 28.9634V24.0836H65.4411V33.8366H44.3695V28.9634ZM90.1161 64.7498H81.4282V58.1252H90.1161V64.7498ZM90.1161 79.8373C67.6598 86.9219 42.0595 86.9219 19.6019 79.8373V68.4291H90.2101L90.2087 79.8373H90.1161ZM31.983 47.8225H40.6722V54.4472H31.983V47.8225ZM69.1371 64.7498V58.1252H77.8222V64.7498H69.1371ZM56.7519 64.7498V58.1252H65.4398V64.7498H56.7519ZM44.3668 64.7498V58.1252H53.0547V64.7498H44.3668ZM65.4398 54.4458H56.7519V47.8212H65.4398V54.4458ZM53.0587 54.4458H44.3695V47.8212L53.0587 47.8225V54.4458ZM31.983 58.1252H40.6722V64.7498H31.983V58.1252ZM77.8236 54.4458H69.1384V47.8212H77.8236V54.4458ZM77.8236 44.1406H69.1384V37.5146H77.8236V44.1406ZM65.4398 44.1406H56.7546V37.5146H65.4398V44.1406ZM53.0587 37.5146V44.1406H44.3695V37.5146H53.0587ZM40.6722 44.1406H31.9844V37.5146H40.6722V44.1406ZM90.1161 54.4458H81.4282V47.8212H90.1161V54.4458ZM40.6722 23.994V25.7414L37.3429 23.994H40.6722Z" fill="#24C5C1"/>
</svg>
