<svg width="24" height="24" viewBox="0 0 24 24" fill="none" xmlns="http://www.w3.org/2000/svg">
<path fill-rule="evenodd" clip-rule="evenodd" d="M12 0C5.37853 0 0 5.37778 0 12C0 18.6222 5.37853 24 12 24C18.6441 24 24 18.6222 24 12C24 5.37778 18.6441 0 12 0Z" fill="#1EA19E"/>
<path fill-rule="evenodd" clip-rule="evenodd" d="M17.8528 7.13339C17.8076 7.00006 17.7624 6.95562 17.672 6.93339C17.4912 6.8445 17.1748 6.95562 17.1748 6.95562C17.1748 6.95562 5.9432 11.0001 5.31043 11.4445C5.17484 11.5334 5.12964 11.6001 5.10704 11.6667C4.99405 11.9778 5.33303 12.1334 5.33303 12.1334L8.22569 13.0667C8.22569 13.0667 8.33868 13.0889 8.36128 13.0667C9.01665 12.6445 14.9828 8.88895 15.3217 8.75562C15.3669 8.73339 15.4121 8.75562 15.4121 8.80006C15.2765 9.26673 10.1014 13.8667 10.1014 13.8667C10.1014 13.8667 10.0788 13.8889 10.0788 13.9112L9.78501 16.7778C9.78501 16.7778 9.67202 17.6667 10.5534 16.7778C11.1635 16.1556 11.7737 15.6445 12.0675 15.3778C13.0618 16.0667 14.124 16.8223 14.5986 17.2223C14.8246 17.4223 15.0279 17.4445 15.1861 17.4445C15.6155 17.4223 15.7511 16.9556 15.7511 16.9556C15.7511 16.9556 17.785 8.73339 17.8754 7.62228C17.8754 7.51117 17.898 7.4445 17.898 7.37784C17.8754 7.26673 17.8754 7.17784 17.8528 7.13339Z" fill="white"/>
</svg>
