<svg width="130" height="110" viewBox="0 0 130 110" fill="none" xmlns="http://www.w3.org/2000/svg">
<path fill-rule="evenodd" clip-rule="evenodd" d="M12.6599 83.0487C12.6599 80.9897 13.2872 79.0761 14.3619 77.4876L15.1215 76.5678H4.7377C3.7782 76.5678 3 75.7907 3 74.8326C3 73.8758 3.7782 73.0987 4.7377 73.0987H125.264C126.222 73.0987 127 73.8758 127 74.8326C127 75.7907 126.222 76.5678 125.264 76.5678H114.876L115.635 77.4876C116.71 79.0761 117.339 80.9897 117.339 83.0487C117.339 88.5411 112.876 93 107.374 93C104.623 93 102.131 91.8859 100.327 90.0846L99.1439 88.6521L97.9607 90.0846C96.1569 91.8859 93.6661 93 90.916 93C85.413 93 80.9503 88.5411 80.9503 83.0487C80.9503 80.9897 81.5776 79.0761 82.6523 77.4876L83.4119 76.5678H46.5854L47.3451 77.4876C48.4197 79.0761 49.0484 80.9897 49.0484 83.0487C49.0484 88.5411 44.5857 93 39.0841 93C36.3326 93 33.8405 91.8859 32.0367 90.0846L30.8535 88.6521L29.6703 90.0846C27.8664 91.8859 25.3757 93 22.6255 93C17.1226 93 12.6599 88.5411 12.6599 83.0487ZM29.1158 83.0487C29.1158 79.4726 26.2068 76.5678 22.6255 76.5678C19.0429 76.5678 16.134 79.4726 16.134 83.0487C16.134 86.6261 19.0429 89.5309 22.6255 89.5309C26.2068 89.5309 29.1158 86.6261 29.1158 83.0487ZM45.5743 83.0487C45.5743 79.4726 42.6653 76.5678 39.0841 76.5678C35.5015 76.5678 32.5925 79.4726 32.5925 83.0487C32.5925 86.6261 35.5015 89.5309 39.0841 89.5309C42.6653 89.5309 45.5743 86.6261 45.5743 83.0487ZM97.4062 83.0487C97.4062 79.4726 94.4972 76.5678 90.916 76.5678C87.3334 76.5678 84.4244 79.4726 84.4244 83.0487C84.4244 86.6261 87.3334 89.5309 90.916 89.5309C94.4972 89.5309 97.4062 86.6261 97.4062 83.0487ZM113.865 83.0487C113.865 79.4726 110.956 76.5678 107.374 76.5678C103.792 76.5678 100.883 79.4726 100.883 83.0487C100.883 86.6261 103.792 89.5309 107.374 89.5309C110.956 89.5309 113.865 86.6261 113.865 83.0487ZM30.8535 77.4479L31.5801 76.5678H30.1269L30.8535 77.4479ZM99.8705 76.5678H98.4173L99.1439 77.4479L99.8705 76.5678ZM14.3288 64.5258V19.7237C14.3288 18.2211 15.5517 17 17.0578 17H112.944C114.448 17 115.671 18.2211 115.671 19.7237V64.5258C115.671 66.0297 114.448 67.2508 112.944 67.2508H17.0578C15.5517 67.2508 14.3288 66.0297 14.3288 64.5258ZM112.197 63.7817V20.4691H17.8029V63.7817H112.197ZM33.4845 53.6335V27.6531C33.4845 26.6963 34.2627 25.9192 35.2222 25.9192C36.1804 25.9192 36.9586 26.6963 36.9586 27.6531V53.6335C36.9586 54.5916 36.1804 55.3687 35.2222 55.3687C34.2627 55.3687 33.4845 54.5916 33.4845 53.6335ZM53.3364 53.6335V27.6531C53.3364 26.6963 54.1146 25.9192 55.0741 25.9192C56.0323 25.9192 56.8104 26.6963 56.8104 27.6531V53.6335C56.8104 54.5916 56.0323 55.3687 55.0741 55.3687C54.1146 55.3687 53.3364 54.5916 53.3364 53.6335ZM73.1882 53.6335V27.6531C73.1882 26.6963 73.9664 25.9192 74.9259 25.9192C75.8841 25.9192 76.6623 26.6963 76.6623 27.6531V53.6335C76.6623 54.5916 75.8841 55.3687 74.9259 55.3687C73.9664 55.3687 73.1882 54.5916 73.1882 53.6335ZM93.0401 53.6335V27.6531C93.0401 26.6963 93.8183 25.9192 94.7778 25.9192C95.736 25.9192 96.5142 26.6963 96.5142 27.6531V53.6335C96.5142 54.5916 95.736 55.3687 94.7778 55.3687C93.8183 55.3687 93.0401 54.5916 93.0401 53.6335Z" fill="#24C5C1"/>
</svg>
