<svg width="110" height="110" viewBox="0 0 110 110" fill="none" xmlns="http://www.w3.org/2000/svg">
<path fill-rule="evenodd" clip-rule="evenodd" d="M7.70363 97.1031C7.70363 93.784 10.0002 91.0253 13.0694 90.3787L13.9279 90.2925L14.1855 90.2494H77.6949V72.684C77.6949 71.7572 78.4462 71.0029 79.3476 71.0029H93.4918C94.0284 71.0029 94.5435 71.283 94.8655 71.7356C97.484 75.6582 100.102 79.5593 102.7 83.4819C102.893 83.762 102.979 84.0853 102.979 84.4302V98.2454C102.979 99.1722 102.227 99.9481 101.326 99.9481H96.7113C95.6596 102.34 93.2987 104 90.5728 104C87.847 104 85.4861 102.34 84.4344 99.9481H79.3262C78.4032 99.9481 77.6735 99.1938 77.6735 98.2454V93.6547H71.4063L71.8355 94.4522C72.1789 95.2712 72.3721 96.1764 72.3721 97.1247C72.3721 100.918 69.3673 103.978 65.6541 103.978C61.941 103.978 58.9362 100.896 58.9362 97.1247C58.9362 96.1764 59.1293 95.2712 59.4727 94.4522L59.902 93.6547H30.3258L30.755 94.4522C31.0985 95.2712 31.2916 96.1764 31.2916 97.1247C31.2916 100.918 28.2868 103.978 24.5737 103.978C22.7278 103.978 21.0322 103.203 19.8088 101.974L19.4869 101.586L19.1649 101.974C17.9416 103.224 16.2674 103.978 14.4216 103.978C10.7299 103.957 7.70363 100.875 7.70363 97.1031ZM17.8342 97.1031C17.8342 95.185 16.3104 93.6332 14.4216 93.6332C12.5328 93.6332 11.009 95.185 11.009 97.1031C11.009 99.0213 12.5328 100.573 14.4216 100.573C16.3104 100.573 17.8342 99.0213 17.8342 97.1031ZM27.9648 97.1031C27.9648 95.185 26.441 93.6332 24.5522 93.6332C22.6634 93.6332 21.1396 95.185 21.1396 97.1031C21.1396 99.0213 22.6634 100.573 24.5522 100.573C26.441 100.573 27.9648 99.0213 27.9648 97.1031ZM69.0668 97.1031C69.0668 95.185 67.5429 93.6332 65.6541 93.6332C63.7654 93.6332 62.2415 95.185 62.2415 97.1031C62.2415 99.0213 63.7654 100.573 65.6541 100.573C67.5429 100.573 69.0668 99.0213 69.0668 97.1031ZM94.007 97.1031C94.007 95.185 92.4831 93.6332 90.5943 93.6332C88.7056 93.6332 87.1817 95.185 87.1817 97.1031C87.1817 99.0213 88.7056 100.573 90.5943 100.573C92.4831 100.573 94.007 99.0213 94.007 97.1031ZM83.8978 96.5212V96.3919C84.2412 92.9435 87.1173 90.2278 90.5943 90.2278C94.0713 90.2278 96.9474 92.9219 97.2908 96.3919V96.5212H99.6947V84.9259L92.6333 74.3651H81.0217V96.5212H83.8978ZM7.78948 85.4432V57.2738C7.78948 56.0022 8.79825 54.9677 10.0646 54.9677H69.0882C70.3331 54.9677 71.3633 56.0022 71.3633 57.2738V85.4432C71.3633 86.7148 70.3546 87.7493 69.0882 87.7493H10.0646C8.79825 87.7708 7.78948 86.7363 7.78948 85.4432ZM68.0365 84.3871V58.3299H11.1163V84.3655H68.0365V84.3871ZM19.5728 78.5894V62.2525C19.5728 61.3257 20.324 60.5714 21.2254 60.5714C22.1483 60.5714 22.8781 61.3257 22.8781 62.2525V78.5894C22.8781 79.5162 22.1269 80.2921 21.2254 80.2921C20.324 80.2921 19.5728 79.5377 19.5728 78.5894ZM31.8067 78.5894V62.2525C31.8067 61.3257 32.558 60.5714 33.4594 60.5714C34.3823 60.5714 35.1121 61.3257 35.1121 62.2525V78.5894C35.1121 79.5162 34.3609 80.2921 33.4594 80.2921C32.5365 80.2921 31.8067 79.5377 31.8067 78.5894ZM44.0193 78.5894V62.2525C44.0193 61.3257 44.7705 60.5714 45.6719 60.5714C46.5949 60.5714 47.3246 61.3257 47.3246 62.2525V78.5894C47.3246 79.5162 46.5734 80.2921 45.6719 80.2921C44.7705 80.2921 44.0193 79.5377 44.0193 78.5894ZM56.2533 78.5894V62.2525C56.2533 61.3257 57.0045 60.5714 57.9059 60.5714C58.8288 60.5714 59.5586 61.3257 59.5586 62.2525V78.5894C59.5586 79.5162 58.8074 80.2921 57.9059 80.2921C56.983 80.2921 56.2533 79.5377 56.2533 78.5894ZM17.8342 47.0578L7.2529 29.2769C6.56608 28.1346 7.36022 26.6906 8.64801 26.6906H30.8838C31.4633 26.6906 31.9999 26.9923 32.3004 27.5096L35.6057 33.0702H41.7013V21.2162C41.7013 20.2894 42.4525 19.5351 43.3539 19.5351H54.8367V7.68111C54.8582 6.75434 55.6094 6 56.5323 6H69.6892C70.6121 6 71.3419 6.75434 71.3419 7.68111V21.2162V33.0702H77.1369V21.2162C77.1369 20.2894 77.8881 19.5351 78.7896 19.5351H91.6889C92.6118 19.5351 93.3416 20.2894 93.3416 21.2162V26.6906H101.347C102.27 26.6906 103 27.4449 103 28.3717V32.8762C103 33.1779 102.914 33.4797 102.764 33.7598L94.8655 47.0363C94.565 47.532 94.0284 47.8553 93.4489 47.8553H19.2508C18.6713 47.8768 18.1347 47.5536 17.8342 47.0578ZM92.5045 44.4931L99.6732 32.4236V30.0743H91.6675C90.7445 30.0743 90.0148 29.32 90.0148 28.3717V22.9188H80.4422V34.7728C80.4422 35.6996 79.691 36.4755 78.7896 36.4755H69.6677H43.3754H34.6828C34.1033 36.4755 33.5667 36.1737 33.2662 35.6565L29.9609 30.0959H11.6099L20.1737 44.4931H92.5045ZM54.8582 33.0702V22.9188H45.028V33.0702H54.8582ZM68.0151 33.0702V22.9188H58.185V33.0702H68.0151ZM68.0151 19.5351V9.38377H58.185V19.5351H68.0151Z" fill="#24C5C1"/>
</svg>
