<svg width="36" height="36" viewBox="0 0 36 36" fill="none" xmlns="http://www.w3.org/2000/svg">
<path fill-rule="evenodd" clip-rule="evenodd" d="M36 36H0V0H36V36Z" fill="#E30F1A"/>
<path fill-rule="evenodd" clip-rule="evenodd" d="M23.7365 18C23.7365 13.0222 19.6938 9 14.7252 9C9.75653 9 5.71387 13.0222 5.71387 18C5.71387 22.9778 9.75653 27 14.7252 27C19.6938 27 23.7365 22.9778 23.7365 18Z" fill="white"/>
<path fill-rule="evenodd" clip-rule="evenodd" d="M24.1881 18C24.1881 14.0223 20.9585 10.8 16.9836 10.8C13.0087 10.8 9.77905 14.0223 9.77905 18C9.77905 21.9778 13.0087 25.2 16.9836 25.2C20.9585 25.2 24.1881 21.9778 24.1881 18Z" fill="#E30F1A"/>
<path fill-rule="evenodd" clip-rule="evenodd" d="M21.8621 17.9999L29.9925 20.6444L24.9562 13.7111V22.2888L29.9925 15.3555L21.8621 17.9999Z" fill="white"/>
</svg>
